<svg width="383" height="500" viewBox="0 0 383 500" fill="none" xmlns="http://www.w3.org/2000/svg">
<g clip-path="url(#clip0_1_1856)">
<g clip-path="url(#clip1_1_1856)">
<path d="M750.027 0H0.0270081V500H750.027V0Z" fill="#FCF9ED"/>
<path d="M750.027 400.13H0V500H750.027V400.13Z" fill="#DDD9C2"/>
<path d="M750.027 367.555H0V378.722H750.027V367.555Z" fill="#ECE9D9"/>
<path d="M750.027 347.309H0V358.476H750.027V347.309Z" fill="#ECE9D9"/>
<path d="M750.027 388.962H0V400.129H750.027V388.962Z" fill="#C2BDA2"/>
<path d="M80.081 42.015H34.157C33.912 42.015 33.713 41.816 33.713 41.571V31.837C33.713 31.592 33.912 31.394 34.157 31.394H80.081C80.326 31.394 80.525 31.593 80.525 31.837V41.571C80.525 41.817 80.326 42.015 80.081 42.015Z" fill="#ECE9D9"/>
<path d="M112.185 55.774H66.261C66.016 55.774 65.817 55.575 65.817 55.33V45.596C65.817 45.351 66.016 45.152 66.261 45.152H112.185C112.43 45.152 112.628 45.35 112.628 45.596V55.33C112.629 55.576 112.43 55.774 112.185 55.774Z" fill="#ECE9D9"/>
<path d="M325.442 212.05H279.518C279.273 212.05 279.074 211.851 279.074 211.607V201.873C279.074 201.628 279.273 201.43 279.518 201.43H325.442C325.687 201.43 325.885 201.629 325.885 201.873V211.607C325.886 211.852 325.687 212.05 325.442 212.05Z" fill="#ECE9D9"/>
<path d="M357.546 225.809H311.622C311.377 225.809 311.178 225.61 311.178 225.366V215.632C311.178 215.387 311.377 215.189 311.622 215.189H357.546C357.791 215.189 357.99 215.388 357.99 215.632V225.366C357.99 225.611 357.791 225.809 357.546 225.809Z" fill="#ECE9D9"/>
<path d="M28.374 203.598H74.298C74.543 203.598 74.741 203.399 74.741 203.155V193.421C74.741 193.176 74.542 192.977 74.297 192.977H28.374C28.129 192.977 27.93 193.176 27.93 193.421V203.155C27.93 203.4 28.129 203.598 28.374 203.598Z" fill="#ECE9D9"/>
<path d="M108.638 301.904H154.562C154.807 301.904 155.006 301.705 155.006 301.46V291.726C155.006 291.481 154.807 291.282 154.562 291.282H108.638C108.393 291.282 108.195 291.481 108.195 291.726V301.46C108.195 301.706 108.393 301.904 108.638 301.904Z" fill="#ECE9D9"/>
<path d="M258.032 62.931H116.541V267.357H258.032V62.931Z" fill="#DDD9C2"/>
<path d="M250.591 70.371H123.981V259.919H250.591V70.371Z" fill="#ECE9D9"/>
<g opacity="0.5">
<path d="M208.499 70.371L123.981 154.889V133.157L186.764 70.371H208.499Z" fill="#FCF9ED"/>
</g>
<g opacity="0.5">
<path d="M250.592 74.201V103.53L123.981 230.14V200.811L250.592 74.201Z" fill="#FCF9ED"/>
</g>
<g opacity="0.5">
<path d="M250.592 207.846V223.484L214.156 259.919H198.519L250.592 207.846Z" fill="#FCF9ED"/>
</g>
<g opacity="0.5">
<path d="M250.592 143.289V158.445L149.115 259.919H133.962L250.592 143.289Z" fill="#FCF9ED"/>
</g>
<path d="M250.592 155.743H123.98V164.664H250.592V155.743Z" fill="#DDD9C2"/>
<path d="M376.943 15.567L366.873 43.907H395.545L386.076 15.612C385.725 14.563 384.743 13.856 383.638 13.856H379.367C378.277 13.856 377.307 14.541 376.943 15.567Z" fill="#C2BDA2"/>
<path d="M383.255 0H379.78V21.336H383.255V0Z" fill="#C2BDA2"/>
<path d="M157.735 15.567L147.665 43.907H176.337L166.868 15.612C166.517 14.563 165.535 13.856 164.43 13.856H160.159C159.07 13.856 158.099 14.541 157.735 15.567Z" fill="#C2BDA2"/>
<path d="M164.048 0H160.572V21.336H164.048V0Z" fill="#C2BDA2"/>
<path d="M261.156 163.48C261.05 163.797 260.94 164.116 260.828 164.429L260.742 164.667L260.639 164.913L260.428 165.407L260.208 165.899C260.133 166.063 260.066 166.223 259.971 166.395C259.792 166.734 259.608 167.071 259.418 167.403C259.242 167.733 258.999 168.081 258.777 168.419C258.54 168.757 258.328 169.087 258.046 169.421C257.775 169.755 257.499 170.083 257.215 170.405C256.91 170.726 256.59 171.04 256.267 171.346C254.948 172.564 253.378 173.595 251.746 174.321C250.116 175.038 248.479 175.45 246.951 175.668C246.577 175.717 246.183 175.772 245.822 175.797C245.461 175.823 245.099 175.844 244.735 175.86C244.043 175.873 243.337 175.875 242.694 175.829C242.024 175.798 241.416 175.723 240.789 175.651C240.195 175.562 239.588 175.473 239.027 175.356C238.448 175.249 237.913 175.116 237.363 174.986C236.838 174.845 236.3 174.706 235.799 174.549C234.774 174.244 233.807 173.903 232.87 173.544C230.993 172.822 229.25 172.015 227.57 171.146C226.732 170.711 225.908 170.257 225.09 169.784C224.681 169.546 224.274 169.302 223.861 169.047L223.232 168.653L222.902 168.438L222.727 168.322L222.489 168.158C217.879 164.785 216.874 158.312 220.249 153.7C223.616 149.098 230.071 148.09 234.68 151.444L234.682 151.447L234.686 151.45L234.706 151.467L234.768 151.519L234.917 151.637L235.26 151.897C235.495 152.074 235.742 152.253 235.994 152.429C236.497 152.782 237.013 153.129 237.532 153.459C238.568 154.118 239.617 154.712 240.613 155.203C241.11 155.449 241.597 155.673 242.052 155.857C242.287 155.958 242.5 156.03 242.719 156.117C242.924 156.183 243.139 156.267 243.323 156.318C243.355 156.331 243.388 156.341 243.421 156.349C243.547 156.39 243.662 156.419 243.775 156.453C243.801 156.46 243.828 156.467 243.854 156.476C243.963 156.498 244.079 156.53 244.176 156.554C244.186 156.521 244.194 156.49 244.203 156.455C244.235 156.337 244.269 156.214 244.299 156.081C244.369 155.776 244.433 155.438 244.485 155.082C244.635 154.046 244.714 152.86 244.724 151.602C244.73 149.065 244.478 146.286 244.083 143.469C243.685 140.644 243.136 137.761 242.503 134.862C241.876 131.965 241.14 129.048 240.354 126.132C239.579 123.215 238.708 120.298 237.827 117.379L237.802 117.299C236.654 113.484 238.816 109.46 242.63 108.313C246.239 107.226 250.046 109.13 251.414 112.568C252.59 115.535 253.756 118.511 254.842 121.543C255.937 124.571 256.991 127.631 257.951 130.762C258.914 133.891 259.807 137.075 260.562 140.379C261.309 143.686 261.94 147.097 262.256 150.79C262.402 152.646 262.465 154.579 262.359 156.653C262.239 158.73 261.963 160.967 261.156 163.48Z" fill="#A15927"/>
<path d="M235.702 111.213C235.845 113.516 236.282 117.784 237.584 119.794C239.419 122.623 246.088 123.83 252.64 121.1C257.505 119.071 258.242 113.797 258.298 111.213H235.702Z" fill="#A15927"/>
<path d="M231.553 111.213C232.386 113.062 235.669 115.114 241.641 114.688C247.657 114.26 245.165 112.175 243.654 111.213H231.553Z" fill="#A15927"/>
<path d="M242.811 121.424C242.546 121.424 242.33 121.209 242.33 120.943C242.33 120.678 242.545 120.463 242.811 120.463C247.965 120.463 249.158 115.51 249.207 115.299C249.266 115.04 249.526 114.879 249.782 114.937C250.041 114.996 250.203 115.252 250.145 115.511C250.13 115.57 248.743 121.424 242.811 121.424Z" fill="#7D310B"/>
<path d="M234.704 151.464L234.685 151.454L234.681 151.451C234.69 151.453 234.696 151.458 234.704 151.464Z" fill="#A15927"/>
<path d="M254.527 120.456C254.527 120.456 244.505 124.562 239.161 121.873C239.161 121.873 238.106 124.65 240.376 126.278C240.376 126.278 244.886 128.341 255.535 124.11C255.535 124.11 255.4 121.321 254.527 120.456Z" fill="#2A2410"/>
<path d="M246.855 163.586C246.752 163.662 246.628 163.686 246.51 163.665C246.399 163.645 246.294 163.585 246.224 163.488C245.156 162.023 244.443 160.265 243.977 158.674C243.785 158.017 243.633 157.39 243.512 156.824C243.479 156.662 243.447 156.504 243.42 156.355C243.546 156.396 243.661 156.425 243.774 156.459C243.893 156.397 244.038 156.386 244.17 156.444C244.181 156.448 244.191 156.454 244.201 156.461C244.233 156.343 244.267 156.22 244.297 156.087C244.647 157.961 245.404 160.833 246.955 162.953C247.101 163.156 247.058 163.438 246.855 163.586Z" fill="#7D310B"/>
<path d="M243.62 162.79C243.571 162.797 243.522 162.796 243.476 162.787C243.291 162.754 243.136 162.605 243.108 162.407C243.087 162.267 242.625 159.032 243.512 156.824C243.53 156.775 243.55 156.725 243.573 156.676C243.615 156.58 243.688 156.505 243.775 156.459C243.894 156.397 244.039 156.386 244.171 156.444C244.182 156.448 244.192 156.454 244.202 156.461C244.408 156.569 244.5 156.822 244.404 157.039C244.189 157.528 244.056 158.098 243.977 158.674C243.74 160.419 244 162.254 244.003 162.275C244.039 162.523 243.868 162.753 243.62 162.79Z" fill="#7D310B"/>
<path d="M237.555 150.706L227.996 173.739C227.996 173.739 222.311 170.02 216.243 165.736C215.997 165.564 215.755 165.392 215.51 165.216C210.248 161.483 204.862 157.426 202.761 155.073C197.389 149.059 196.716 137.447 208.12 132.165C208.12 132.165 211.894 131.218 222.139 139.102C229.16 144.511 237.555 150.706 237.555 150.706Z" fill="#2A2410"/>
<path d="M268.476 465.309C268.476 467.937 229.253 470.067 180.868 470.067C132.483 470.067 93.26 467.937 93.26 465.309C93.26 462.681 132.483 460.551 180.868 460.551C229.253 460.551 268.476 462.681 268.476 465.309Z" fill="#C2BDA2"/>
<path d="M82.819 107.878C82.819 126.658 81.725 141.881 80.375 141.881C79.025 141.881 77.931 126.657 77.931 107.878C77.931 89.099 79.025 73.875 80.375 73.875C81.725 73.875 82.819 89.098 82.819 107.878Z" fill="#2A2410"/>
<path d="M80.374 141.881C74.722 143.161 69.071 143.161 63.419 141.881V73.874C69.071 73.218 74.722 73.218 80.374 73.874V141.881Z" fill="#2A2410"/>
<path d="M63.42 141.881C64.7698 141.881 65.864 126.657 65.864 107.878C65.864 89.0987 64.7698 73.875 63.42 73.875C62.0702 73.875 60.976 89.0987 60.976 107.878C60.976 126.657 62.0702 141.881 63.42 141.881Z" fill="#5B533E"/>
<path d="M63.871 123.083C61.639 123.589 59.406 123.589 57.174 123.083V96.221C59.406 95.962 61.639 95.962 63.871 96.221C64.626 104.925 64.574 113.896 63.871 123.083Z" fill="#2A2410"/>
<path d="M58.139 109.652C58.139 117.07 57.707 123.083 57.174 123.083C56.641 123.083 56.209 117.07 56.209 109.652C56.209 102.234 56.641 96.221 57.174 96.221C57.707 96.221 58.139 102.234 58.139 109.652Z" fill="#5B533E"/>
<path d="M308.919 107.878C308.919 126.658 307.825 141.881 306.475 141.881C305.125 141.881 304.031 126.657 304.031 107.878C304.031 89.099 305.125 73.875 306.475 73.875C307.825 73.874 308.919 89.098 308.919 107.878Z" fill="#2A2410"/>
<path d="M313.108 123.083C310.876 123.589 308.643 123.589 306.411 123.083V96.221C308.643 95.962 310.876 95.962 313.108 96.221C313.863 104.925 313.811 113.896 313.108 123.083Z" fill="#2A2410"/>
<path d="M306.475 141.881C300.823 143.161 295.172 143.161 289.52 141.881V73.874C295.172 73.218 300.823 73.218 306.475 73.874V141.881Z" fill="#2A2410"/>
<path d="M291.965 107.878C291.965 126.658 290.871 141.881 289.521 141.881C288.171 141.881 287.077 126.657 287.077 107.878C287.077 89.099 288.171 73.875 289.521 73.875C290.87 73.874 291.965 89.098 291.965 107.878Z" fill="#5B533E"/>
<path d="M289.52 111.212H73.921V108.111H289.52C290.485 109.145 290.485 110.179 289.52 111.212Z" fill="#2A2410"/>
<path d="M192.845 264.215L191.951 266.625L162.859 344.961C162.859 363.239 157.912 389.801 153.606 409.46C153.274 410.981 152.944 412.462 152.621 413.894C152.392 414.907 152.167 415.895 151.947 416.856C151.662 418.099 151.383 419.297 151.112 420.446C150.871 421.476 150.637 422.463 150.41 423.408C148.657 430.723 147.417 435.405 147.352 435.656C147.35 435.663 147.35 435.668 147.35 435.668L146.751 445.63L131.824 445.347L132.561 434.966V434.959L132.933 423.408L133.029 420.446L133.144 416.856L133.24 413.894L133.399 408.921L135.505 343.584L135.571 342.332C135.601 342.217 135.627 342.105 135.658 341.988C140.156 324.007 149.511 279.087 155.879 257.423C156.057 256.812 156.23 256.222 156.396 255.654C157.412 252.209 158.191 249.56 158.659 247.976C158.977 246.9 159.151 246.317 159.151 246.317L164.067 248.931L165.48 249.68L192.845 264.215Z" fill="#A15927"/>
<path d="M153.607 409.46C153.275 410.981 152.945 412.462 152.622 413.894C152.393 414.907 152.168 415.895 151.948 416.856C151.663 418.099 151.384 419.297 151.113 420.446C150.872 421.476 150.638 422.463 150.411 423.408C148.658 430.723 147.418 435.405 147.353 435.656C147.351 435.663 147.351 435.668 147.351 435.668L146.752 445.63L131.825 445.347L132.562 434.966V434.959L132.934 423.408L133.03 420.446L133.145 416.856L133.241 413.894L133.4 408.921L153.607 409.46Z" fill="#2A2410"/>
<path d="M152.622 413.895C152.393 414.908 152.168 415.896 151.948 416.857H133.143L133.239 413.895H152.622Z" fill="#FCF9ED"/>
<path d="M151.113 420.447C150.872 421.477 150.638 422.464 150.411 423.409H132.933L133.029 420.447H151.113Z" fill="#FCF9ED"/>
<path d="M144.806 342.475C142.474 343.406 140.094 343.716 137.961 343.716C137.096 343.716 136.27 343.664 135.504 343.585L135.57 342.333C135.599 342.22 135.627 342.106 135.656 341.991C136.385 342.068 137.173 342.118 137.997 342.118C139.958 342.118 142.125 341.839 144.221 341.004C144.626 340.841 145.088 341.04 145.249 341.446C145.413 341.852 145.214 342.314 144.806 342.475Z" fill="#7D310B"/>
<path d="M150.13 462.187C150.13 462.303 150.127 462.416 150.125 462.526C150.114 463.041 150.092 463.504 150.07 463.9C150.018 464.773 149.954 465.31 149.954 465.31H120.978C120.978 465.31 120.835 464.189 120.945 462.526C121.135 459.565 122.118 454.889 126.12 451.799C131.598 447.563 129.483 448.447 130.606 446.517C130.733 446.302 131.719 443.022 131.823 442.796C132.765 440.791 133.633 439.844 138.824 439.844C145.709 439.844 146.315 443.185 147.051 444.945C147.354 445.675 147.77 447.209 148.197 449.035C148.371 449.768 148.544 450.55 148.715 451.346C149.139 453.343 149.536 455.428 149.805 457.091C150.092 458.871 150.152 460.705 150.13 462.187Z" fill="#678E43"/>
<path d="M150.13 462.187C150.13 462.303 150.127 462.416 150.125 462.526C150.114 463.041 150.092 463.504 150.07 463.9C148.657 462.909 147.649 461.6 147.06 459.997C145.267 455.114 148.024 449.253 148.14 449.005L148.198 449.033C148.372 449.766 148.545 450.548 148.716 451.344C148.064 453.338 147.312 456.69 148.355 459.526C148.734 460.559 149.329 461.449 150.13 462.187Z" fill="#4B6F32"/>
<path d="M150.125 462.526C150.086 464.176 149.954 465.31 149.954 465.31H120.978C120.978 465.31 120.835 464.189 120.945 462.526H150.125Z" fill="#4B6F32"/>
<path d="M139.78 448.875C139.712 448.875 139.642 448.867 139.572 448.849C135.887 447.894 132.884 448.702 132.854 448.711C132.414 448.833 131.959 448.575 131.837 448.135C131.715 447.695 131.973 447.24 132.413 447.118C132.552 447.08 135.876 446.185 139.985 447.249C140.427 447.363 140.692 447.814 140.578 448.256C140.483 448.628 140.148 448.875 139.78 448.875Z" fill="#4B6F32"/>
<path d="M140.27 445.712C140.202 445.712 140.132 445.704 140.062 445.686C136.377 444.731 133.374 445.539 133.344 445.548C132.904 445.67 132.449 445.412 132.328 444.972C132.206 444.532 132.464 444.077 132.904 443.955C133.043 443.916 136.368 443.022 140.476 444.086C140.918 444.2 141.183 444.651 141.069 445.093C140.973 445.465 140.638 445.712 140.27 445.712Z" fill="#4B6F32"/>
<path d="M138.541 451.493C138.473 451.493 138.403 451.484 138.333 451.466C134.671 450.518 131.644 451.32 131.614 451.328C131.174 451.448 130.72 451.189 130.599 450.75C130.478 450.311 130.735 449.857 131.175 449.735C131.314 449.697 134.639 448.803 138.747 449.866C139.189 449.981 139.454 450.431 139.34 450.873C139.244 451.246 138.909 451.493 138.541 451.493Z" fill="#4B6F32"/>
<path d="M137.085 454.469C137.017 454.469 136.947 454.461 136.878 454.443C133.217 453.495 130.189 454.297 130.159 454.305C129.719 454.426 129.265 454.166 129.144 453.727C129.023 453.287 129.281 452.834 129.72 452.712C129.859 452.674 133.183 451.78 137.292 452.843C137.734 452.957 137.999 453.408 137.885 453.85C137.788 454.222 137.452 454.469 137.085 454.469Z" fill="#4B6F32"/>
<path d="M227.816 257.98C222.239 261.703 209.536 264.732 196.678 266.17C180.101 268.025 163.26 267.241 161.081 261.907C160.836 261.305 160.612 260.675 160.409 260.019C160.405 260.001 160.4 259.98 160.393 259.962C160.243 259.48 160.108 258.984 159.983 258.477C159.757 257.569 159.566 256.627 159.403 255.665C159.308 255.103 159.222 254.533 159.147 253.96C157.979 245.129 159.002 235.427 159.002 235.427L221.899 222.226C221.899 222.226 228.105 240.177 229.086 250.749C229.14 251.329 229.176 251.888 229.197 252.42C229.303 255.186 228.932 257.235 227.816 257.98Z" fill="#2A2410"/>
<path d="M229.285 253.715C229.28 254.209 229.276 254.695 229.271 255.187C229.264 256.343 229.25 257.494 229.238 258.643C229.231 259.237 229.224 259.832 229.217 260.424C229.217 260.508 229.217 260.588 229.215 260.667C229.213 261.214 229.206 261.76 229.199 262.303C228.771 297.926 227.519 330.478 224.954 353.839V353.851L224.671 355.452L213.801 409.395L212.893 413.895L212.296 416.857L211.573 420.447L210.976 423.409L208.423 436.076H208.4L208.346 445.63L194.715 445.373L194.54 435.669C194.54 435.669 194.39 430.792 194.254 423.409C194.235 422.461 194.219 421.474 194.203 420.447C194.184 419.296 194.166 418.095 194.149 416.857C194.137 415.893 194.126 414.903 194.112 413.895C194.096 412.269 194.082 410.589 194.068 408.871C193.937 389.172 194.278 364.443 196.598 356.112L196.523 266.574L196.516 253.687L221.398 256.303L222.949 255.793L223.864 255.496L225.383 254.998L229.285 253.715Z" fill="#A15927"/>
<path d="M213.8 409.395L212.892 413.895L212.295 416.857L211.572 420.447L210.975 423.409L208.422 436.076H208.4L208.346 445.63L194.715 445.373L194.54 435.669C194.54 435.669 194.39 430.792 194.254 423.409C194.235 422.461 194.219 421.474 194.203 420.447C194.184 419.296 194.166 418.095 194.149 416.857C194.137 415.893 194.126 414.903 194.112 413.895C194.096 412.269 194.082 410.589 194.068 408.871L213.8 409.395Z" fill="#2A2410"/>
<path d="M212.893 413.895L212.296 416.857H194.149C194.137 415.893 194.126 414.903 194.112 413.895H212.893Z" fill="#FCF9ED"/>
<path d="M211.573 420.447L210.976 423.409H194.254C194.235 422.461 194.219 421.474 194.203 420.447H211.573Z" fill="#FCF9ED"/>
<path d="M158.596 245.598L135.669 318.388C135.669 318.388 159.508 327.598 176.949 325.676L191.275 284.64L194.045 283.973L192.845 325.939L229.284 323.988C229.284 323.988 235.009 262.797 226.634 238.05C226.634 238.05 207.511 245.834 158.596 245.598Z" fill="#E0AD3A"/>
<path d="M170.639 322.015C170.558 322.015 170.476 322.001 170.396 321.972C170.021 321.838 169.826 321.425 169.961 321.05L184.626 280.188C184.76 279.813 185.173 279.619 185.548 279.753C185.923 279.887 186.118 280.3 185.983 280.675L171.319 321.537C171.213 321.832 170.935 322.015 170.639 322.015Z" fill="#CA8A24"/>
<path d="M199.267 321.168C199.258 321.168 199.249 321.168 199.239 321.167C198.841 321.152 198.531 320.817 198.546 320.419L200.067 280.404C200.082 280.006 200.41 279.701 200.815 279.711C201.213 279.726 201.523 280.061 201.508 280.459L199.987 320.474C199.972 320.863 199.652 321.168 199.267 321.168Z" fill="#CA8A24"/>
<path d="M174.696 321.949C174.618 321.949 174.538 321.936 174.46 321.909C174.084 321.779 173.885 321.368 174.015 320.992L188.012 280.587C188.142 280.211 188.552 280.011 188.929 280.142C189.305 280.273 189.504 280.683 189.374 281.059L175.376 321.464C175.274 321.762 174.994 321.949 174.696 321.949Z" fill="#CA8A24"/>
<path d="M174.658 322.014C155.785 322.014 138.161 313.676 137.976 313.587C137.617 313.415 137.466 312.985 137.638 312.626C137.81 312.267 138.24 312.115 138.6 312.287C138.791 312.378 157.925 321.428 177.471 320.507C177.872 320.494 178.206 320.796 178.225 321.193C178.244 321.591 177.936 321.928 177.539 321.947C176.576 321.993 175.615 322.014 174.658 322.014Z" fill="#CA8A24"/>
<path d="M195.913 321.168C195.902 321.168 195.892 321.168 195.881 321.167C195.483 321.15 195.175 320.813 195.192 320.416L196.908 280.791C196.925 280.393 197.261 280.083 197.659 280.102C198.057 280.119 198.365 280.456 198.348 280.853L196.632 320.478C196.616 320.866 196.297 321.168 195.913 321.168Z" fill="#CA8A24"/>
<path d="M193.572 321.519C193.189 321.519 192.87 321.217 192.852 320.831C192.834 320.433 193.142 320.096 193.54 320.078L229.165 318.479C229.567 318.463 229.9 318.769 229.918 319.167C229.936 319.565 229.628 319.902 229.23 319.92L193.605 321.519C193.593 321.519 193.582 321.519 193.572 321.519Z" fill="#CA8A24"/>
<path d="M224.954 353.839V353.85L224.669 355.451C224.381 355.465 224.096 355.471 223.813 355.471C217.804 355.471 212.757 352.525 212.489 352.367C212.113 352.143 211.988 351.658 212.213 351.282C212.437 350.904 212.924 350.782 213.3 351.003C213.388 351.059 218.886 354.249 224.954 353.839Z" fill="#7D310B"/>
<path d="M229.197 252.419C229.129 252.403 229.07 252.385 229.025 252.369C227.879 251.98 226.786 251.448 225.742 250.775C225.463 250.596 225.194 250.41 224.929 250.216C223.924 249.482 223.018 248.647 222.203 247.752C217.113 242.168 215.592 234.284 215.519 233.886C215.44 233.467 215.716 233.066 216.135 232.987C216.559 232.908 216.959 233.186 217.036 233.603C217.054 233.698 218.607 241.761 223.688 247.069C224.435 247.855 225.264 248.579 226.172 249.211C226.306 249.302 226.439 249.392 226.575 249.48C227.379 249.994 228.217 250.418 229.086 250.748C229.14 251.327 229.176 251.887 229.197 252.419Z" fill="#CA8A24"/>
<path d="M202.932 262.823C202.949 263.163 202.676 263.454 202.325 263.474C202.322 263.474 202.322 263.474 202.32 263.474C201.965 263.492 201.665 263.228 201.648 262.885C201.535 260.559 201.398 258.177 201.248 255.799C201.222 255.38 201.196 254.962 201.167 254.543C200.661 246.769 200.019 239.137 199.535 233.749C199.495 233.314 199.458 232.891 199.42 232.485C199.312 231.302 199.214 230.254 199.13 229.366C199.556 229.3 199.983 229.231 200.404 229.16C200.488 230.048 200.586 231.106 200.695 232.301C200.733 232.707 200.77 233.13 200.81 233.565C201.289 238.906 201.928 246.471 202.433 254.198C202.462 254.624 202.489 255.053 202.518 255.479C202.672 257.945 202.814 260.416 202.932 262.823Z" fill="#CA8A24"/>
<path d="M204.764 254.619C204.563 254.715 203.662 255.134 202.517 255.48C202.117 255.602 201.687 255.713 201.247 255.8C200.844 255.877 200.435 255.935 200.03 255.958C199.252 256.002 198.5 255.92 197.873 255.62C197.092 255.246 196.585 254.566 196.409 253.656C195.941 251.258 194.96 241.355 194.299 234.351C194.257 233.921 194.218 233.5 194.179 233.092C194.074 231.972 193.981 230.953 193.901 230.087C194.326 230.036 194.753 229.984 195.18 229.928C195.26 230.799 195.354 231.83 195.462 232.965C195.5 233.371 195.54 233.791 195.579 234.224C196.241 241.211 197.22 251.099 197.673 253.423C197.775 253.959 198.021 254.303 198.448 254.508C199.128 254.833 200.15 254.765 201.165 254.544C201.598 254.45 202.029 254.329 202.431 254.199C203.167 253.961 203.809 253.691 204.195 253.508C204.514 253.356 204.899 253.481 205.056 253.787C205.214 254.094 205.083 254.467 204.764 254.619Z" fill="#CA8A24"/>
<path d="M169.083 241.496C169.008 241.772 167.912 245.744 165.478 249.681C163.995 252.083 162.011 254.472 159.462 256.001C159.168 256.18 158.866 256.345 158.556 256.497C157.689 256.927 156.794 257.235 155.875 257.425C156.054 256.814 156.226 256.225 156.393 255.657C156.891 255.505 157.38 255.313 157.858 255.075C158.322 254.846 158.766 254.584 159.194 254.294C161.198 252.933 162.81 250.95 164.064 248.932C166.441 245.103 167.531 241.147 167.549 241.082C167.664 240.663 168.099 240.409 168.52 240.525C168.945 240.64 169.196 241.075 169.083 241.496Z" fill="#CA8A24"/>
<path d="M240.29 465.777L191.647 465.256C191.292 464.595 191.105 463.66 191.036 462.548C190.776 458.43 192.158 451.878 192.845 447.744C192.928 447.261 193 446.81 193.056 446.403C193.153 445.712 193.214 445.137 193.219 444.714C193.255 441.335 196.24 441.946 196.24 441.946C201.11 446.825 206.762 439.647 209.991 442.055C209.991 442.055 211.382 443.075 215.207 446.591C219.029 450.107 225.575 452.47 231.14 454.87C238.326 457.964 240.341 461 240.718 463.081C241.016 464.727 240.29 465.777 240.29 465.777Z" fill="#678E43"/>
<path d="M240.29 465.777L191.647 465.256C191.292 464.595 191.105 463.66 191.036 462.548L240.718 463.08C241.016 464.727 240.29 465.777 240.29 465.777Z" fill="#4B6F32"/>
<path d="M196.61 465.309L195.165 465.293C196.624 463.661 198.001 461.148 197.863 457.532C197.68 452.723 194.831 449.453 192.845 447.743C192.928 447.26 193 446.809 193.056 446.402C195.199 448.076 198.799 451.728 199.021 457.487C199.153 460.941 197.993 463.502 196.61 465.309Z" fill="#4B6F32"/>
<path d="M214.351 449.451C213.991 449.447 213.667 449.2 213.58 448.834C213.478 448.403 213.744 447.971 214.175 447.869L217.222 447.147C217.652 447.044 218.085 447.311 218.187 447.742C218.289 448.173 218.023 448.605 217.592 448.707L214.545 449.429C214.48 449.445 214.415 449.452 214.351 449.451Z" fill="#4B6F32"/>
<path d="M211.811 447.125C211.451 447.121 211.127 446.874 211.04 446.508C210.938 446.077 211.204 445.645 211.635 445.543L214.682 444.821C215.112 444.718 215.545 444.985 215.647 445.416C215.749 445.847 215.483 446.279 215.052 446.381L212.005 447.103C211.94 447.119 211.875 447.126 211.811 447.125Z" fill="#4B6F32"/>
<path d="M217.371 451.25C217.011 451.246 216.687 450.999 216.6 450.633C216.498 450.202 216.764 449.77 217.195 449.668L220.242 448.946C220.673 448.843 221.105 449.11 221.207 449.541C221.309 449.972 221.042 450.404 220.612 450.506L217.565 451.228C217.5 451.244 217.435 451.251 217.371 451.25Z" fill="#4B6F32"/>
<path d="M220.391 452.98C220.031 452.976 219.707 452.729 219.62 452.363C219.518 451.932 219.784 451.5 220.215 451.398L223.262 450.676C223.693 450.573 224.125 450.84 224.227 451.271C224.329 451.701 224.063 452.134 223.632 452.236L220.585 452.958C220.52 452.974 220.455 452.981 220.391 452.98Z" fill="#4B6F32"/>
<path d="M223.688 454.586C223.328 454.582 223.004 454.335 222.917 453.969C222.815 453.538 223.081 453.106 223.512 453.004L226.559 452.282C226.99 452.18 227.422 452.446 227.524 452.877C227.626 453.308 227.36 453.74 226.929 453.842L223.882 454.564C223.816 454.58 223.751 454.587 223.688 454.586Z" fill="#4B6F32"/>
<path d="M227.266 455.964C226.906 455.96 226.582 455.713 226.495 455.347C226.393 454.916 226.659 454.484 227.09 454.382L230.137 453.66C230.568 453.557 231 453.824 231.102 454.255C231.204 454.686 230.938 455.118 230.507 455.22L227.46 455.942C227.395 455.957 227.33 455.964 227.266 455.964Z" fill="#4B6F32"/>
<path d="M226.685 238.003C226.665 238.018 226.651 238.037 226.633 238.052C225.326 239.268 223.843 240.428 222.213 241.516C222.159 241.553 222.108 241.585 222.059 241.619C221.537 241.967 221 242.303 220.448 242.632C220.004 242.904 219.556 243.164 219.095 243.414C218.855 243.551 218.612 243.684 218.369 243.814C217.908 244.062 217.435 244.304 216.957 244.54C213.179 246.416 208.901 247.98 204.307 249.134C203.89 249.242 203.471 249.345 203.042 249.438C202.738 249.512 202.429 249.58 202.12 249.649C201.698 249.742 201.274 249.831 200.845 249.914C200.342 250.019 199.83 250.113 199.318 250.203C198.899 250.284 198.477 250.353 198.048 250.421C197.788 250.465 197.526 250.504 197.266 250.541C196.842 250.607 196.415 250.669 195.989 250.723C191.75 251.289 187.357 251.503 182.931 251.314C182.33 251.289 181.725 251.258 181.117 251.213C180.193 251.152 179.264 251.071 178.339 250.97C177.743 250.909 177.148 250.835 176.554 250.752C176.458 250.74 176.365 250.73 176.27 250.715C176.233 250.712 176.194 250.705 176.157 250.7C175.667 250.631 175.186 250.558 174.698 250.479C172.087 250.055 169.483 249.474 166.931 248.726C166.676 248.652 166.421 248.576 166.169 248.498C165.649 248.341 165.129 248.174 164.615 248C163.176 247.517 161.749 246.978 160.349 246.375C159.981 246.223 159.616 246.059 159.253 245.899C159.035 245.799 158.814 245.7 158.596 245.597C158.363 245.484 158.13 245.376 157.902 245.264C157.863 245.247 157.819 245.227 157.779 245.205C155.124 237.948 152.202 212.044 151.417 204.302C151.263 202.76 151.135 201.218 151.034 199.676C150.936 198.173 150.86 196.668 150.809 195.158C150.73 192.993 150.699 190.819 150.701 188.629C150.701 188.077 150.703 187.523 150.711 186.969C150.726 185.456 150.755 183.934 150.799 182.399C150.853 180.595 150.922 178.775 151.007 176.934C151.024 176.581 151.041 176.228 151.058 175.87C151.06 175.799 151.063 175.728 151.068 175.657C151.144 174.098 151.232 172.524 151.325 170.935C151.347 170.57 151.369 170.207 151.391 169.841C151.396 169.758 151.398 169.669 151.406 169.584C151.408 169.518 151.413 169.454 151.416 169.388C151.492 168.143 151.57 166.887 151.654 165.622C151.786 163.484 151.929 161.31 152.073 159.101C152.149 157.897 152.23 156.681 152.306 155.451C152.796 147.696 154.444 141.59 157.19 137.459C157.884 136.417 158.649 135.503 159.48 134.716C160.083 134.145 160.721 133.645 161.395 133.216C162.785 132.329 164.325 131.745 166.016 131.475C167.558 131.232 168.965 130.909 170.243 130.543C170.478 130.477 170.711 130.408 170.939 130.335C171.66 130.114 172.336 129.874 172.971 129.631C173.707 129.349 174.383 129.055 174.996 128.766C175.094 128.722 175.187 128.673 175.283 128.631C175.45 128.548 175.609 128.472 175.768 128.388C175.775 128.383 175.783 128.381 175.79 128.376C176.222 128.155 176.624 127.937 176.991 127.731C178.082 127.113 178.888 126.569 179.367 126.228C179.705 125.985 179.879 125.843 179.879 125.843H198.028C198.173 126.049 198.315 126.25 198.464 126.441C198.474 126.456 198.484 126.47 198.491 126.483C198.729 126.787 198.971 127.074 199.222 127.346C199.69 127.856 200.188 128.312 200.703 128.721C201.363 129.253 202.059 129.704 202.777 130.099C203.076 130.266 203.378 130.418 203.682 130.565C203.915 130.68 204.153 130.786 204.393 130.891C204.641 130.996 204.886 131.097 205.141 131.195C205.732 131.428 206.335 131.634 206.936 131.83C206.941 131.83 206.948 131.835 206.956 131.837C210.697 133.028 214.487 133.641 217.047 135.796C217.496 136.174 217.91 136.6 218.278 137.088H218.281C219.024 138.078 219.583 139.312 219.899 140.886C219.987 141.325 220.036 141.808 220.056 142.335C220.191 146.356 218.477 153.029 217.788 164.022C217.562 167.515 217.447 171.448 217.526 175.871C217.528 175.964 217.528 176.055 217.531 176.148C217.553 177.303 217.585 178.484 217.639 179.7C217.651 180.063 217.668 180.431 217.686 180.796C217.711 181.325 217.737 181.86 217.769 182.399C217.781 182.627 217.796 182.855 217.811 183.085C217.811 183.085 217.811 183.085 217.811 183.09C217.858 183.865 217.912 184.657 217.97 185.458C218.044 186.493 218.134 187.549 218.235 188.628C218.277 189.109 218.323 189.594 218.372 190.082C218.509 191.47 218.666 192.897 218.843 194.36C218.875 194.625 218.907 194.889 218.941 195.157C219.098 196.398 219.267 197.667 219.453 198.964C220.35 205.225 222.356 217.658 224.467 228.099C224.803 229.744 225.136 231.338 225.472 232.85C225.506 233.009 225.538 233.166 225.575 233.321C225.947 235.007 226.322 236.581 226.685 238.003Z" fill="#2A2410"/>
<path d="M217.769 182.4H150.8C150.854 180.596 150.923 178.776 151.008 176.935C151.025 176.582 151.042 176.229 151.059 175.871H217.525C217.527 175.964 217.527 176.055 217.53 176.148C217.552 177.303 217.584 178.484 217.638 179.7C217.65 180.063 217.667 180.431 217.685 180.796C217.71 181.326 217.737 181.86 217.769 182.4Z" fill="#5B533E"/>
<path d="M218.941 195.158H150.81C150.731 192.993 150.7 190.819 150.702 188.629H218.235C218.277 189.11 218.323 189.595 218.372 190.083C218.509 191.471 218.666 192.898 218.843 194.361C218.874 194.626 218.906 194.891 218.941 195.158Z" fill="#5B533E"/>
<path d="M219.17 151.206C219.166 151.279 218.985 153.985 218.822 157.715C218.822 157.744 218.818 157.777 218.818 157.802C218.731 159.798 218.651 162.08 218.608 164.409C218.336 164.282 218.067 164.155 217.795 164.024C217.839 161.843 217.915 159.721 217.995 157.848V157.841C218.017 157.369 218.039 156.919 218.06 156.484C218.201 153.509 218.343 151.408 218.365 151.146C218.376 150.972 218.499 150.83 218.659 150.787C218.703 150.773 218.746 150.769 218.797 150.773C219.021 150.789 219.188 150.981 219.17 151.206Z" fill="#5B533E"/>
<path d="M192.402 143.448C182.567 143.448 175.794 128.416 175.493 127.736C175.341 127.393 175.496 126.992 175.839 126.84C176.182 126.688 176.583 126.843 176.735 127.186C176.809 127.353 184.244 143.854 194.033 141.929C196.472 141.449 198.205 140.306 199.183 138.532C201.461 134.401 199.086 128.138 199.062 128.076C198.927 127.726 199.101 127.333 199.451 127.198C199.801 127.062 200.194 127.237 200.33 127.587C200.438 127.867 202.954 134.509 200.373 139.189C199.192 141.331 197.148 142.702 194.296 143.263C193.653 143.388 193.021 143.448 192.402 143.448Z" fill="#FCF9ED"/>
<path d="M192.459 154.151C189.386 154.151 186.091 153.317 182.662 151.672C176.766 148.842 172.441 144.516 172.398 144.473C172.239 144.312 172.229 144.042 172.377 143.869C172.525 143.696 172.774 143.686 172.933 143.846C172.975 143.889 177.218 148.129 182.998 150.899C190.68 154.58 197.291 154.058 202.646 149.347C202.815 149.198 203.063 149.227 203.199 149.41C203.336 149.594 203.31 149.863 203.141 150.011C200.054 152.726 196.506 154.12 192.595 154.151C192.55 154.151 192.504 154.151 192.459 154.151Z" fill="#5B533E"/>
<path d="M192.24 146.604C187.963 146.604 182.988 142.925 182.714 142.72C182.535 142.586 182.49 142.32 182.613 142.125C182.736 141.931 182.981 141.882 183.16 142.016C183.243 142.079 191.557 148.225 195.427 144.603C195.591 144.449 195.84 144.468 195.982 144.648C196.124 144.827 196.105 145.097 195.941 145.251C194.895 146.23 193.603 146.604 192.24 146.604Z" fill="#5B533E"/>
<path d="M203.57 222.386C201.965 222.386 200.327 222.241 198.66 221.952C194.551 221.238 190.256 219.646 185.896 217.22C178.486 213.097 173.374 207.909 173.323 207.858C173.165 207.696 173.157 207.426 173.306 207.254C173.455 207.082 173.704 207.074 173.862 207.236C173.912 207.287 178.957 212.403 186.273 216.47C192.991 220.205 203.058 223.796 212.87 219.696C213.073 219.611 213.3 219.721 213.379 219.941C213.457 220.161 213.356 220.409 213.153 220.493C210.134 221.754 206.926 222.386 203.57 222.386Z" fill="#5B533E"/>
<path d="M206.077 232.004C204.31 232.436 202.467 232.718 200.552 232.847C195.834 233.167 190.676 232.569 185.221 231.07C175.951 228.523 168.924 224.186 168.854 224.143C168.636 224.007 168.555 223.712 168.673 223.482C168.791 223.253 169.063 223.177 169.28 223.312C169.349 223.355 176.282 227.631 185.433 230.141C193.836 232.446 205.89 233.692 215.593 226.536C215.793 226.388 216.074 226.448 216.219 226.669C216.364 226.891 216.319 227.19 216.119 227.338C213.136 229.541 209.773 231.101 206.077 232.004Z" fill="#5B533E"/>
<path d="M148.571 169.775L148.34 169.949L148.17 170.073L147.851 170.304L147.244 170.727C146.843 171.001 146.447 171.266 146.051 171.522C145.256 172.036 144.457 172.527 143.637 173.003C142.002 173.954 140.302 174.842 138.463 175.655C137.541 176.06 136.593 176.445 135.585 176.801C135.091 176.982 134.559 177.147 134.041 177.313C133.5 177.469 132.972 177.628 132.397 177.764C131.845 177.907 131.242 178.024 130.654 178.142C130.031 178.244 129.427 178.348 128.759 178.412C128.121 178.489 127.416 178.521 126.721 178.541C126.359 178.541 125.996 178.539 125.634 178.53C125.27 178.523 124.876 178.485 124.5 178.455C122.963 178.312 121.31 177.98 119.645 177.341C117.981 176.696 116.36 175.74 114.985 174.588C114.648 174.298 114.313 173.999 113.993 173.696C113.694 173.386 113.402 173.071 113.117 172.752C112.818 172.43 112.587 172.111 112.338 171.785C112.098 171.461 111.837 171.124 111.647 170.805C111.441 170.479 111.242 170.153 111.047 169.822C110.943 169.655 110.868 169.498 110.784 169.338L110.542 168.858L110.307 168.376L110.191 168.134L110.094 167.901C109.967 167.593 109.843 167.281 109.72 166.97C108.794 164.497 108.411 162.276 108.192 160.211C107.984 158.146 107.952 156.21 108.011 154.349C108.147 150.645 108.613 147.21 109.2 143.868C109.795 140.533 110.531 137.308 111.344 134.136C112.153 130.961 113.056 127.855 114.005 124.78C114.942 121.698 115.966 118.669 116.994 115.648C118.278 111.878 122.376 109.863 126.146 111.147C129.715 112.361 131.712 116.097 130.826 119.688L130.799 119.799C130.063 122.758 129.332 125.713 128.698 128.666C128.053 131.616 127.459 134.564 126.972 137.49C126.481 140.413 126.071 143.323 125.811 146.162C125.553 148.997 125.435 151.782 125.562 154.316C125.632 155.573 125.77 156.755 125.972 157.78C126.04 158.136 126.119 158.468 126.205 158.772C126.241 158.901 126.28 159.023 126.318 159.139C126.327 159.173 126.338 159.205 126.35 159.236C126.445 159.209 126.561 159.17 126.667 159.143C126.692 159.134 126.717 159.125 126.742 159.118C126.855 159.077 126.968 159.043 127.093 158.996C127.125 158.987 127.156 158.973 127.19 158.96C127.371 158.901 127.582 158.806 127.783 158.731C127.998 158.631 128.207 158.55 128.435 158.437C128.881 158.233 129.359 157.986 129.844 157.717C130.815 157.178 131.832 156.533 132.837 155.824C133.337 155.471 133.838 155.099 134.322 154.721C134.564 154.533 134.802 154.343 135.029 154.155L135.357 153.879L135.502 153.754L135.563 153.697L135.579 153.679L135.584 153.674C140.029 150.101 146.525 150.794 150.111 155.229C153.702 159.669 153.014 166.184 148.571 169.775Z" fill="#A15927"/>
<path d="M111.467 111.213C111.523 113.796 112.26 119.071 117.125 121.1C123.677 123.831 130.346 122.623 132.181 119.794C133.482 117.784 133.92 113.516 134.062 111.213H111.467Z" fill="#A15927"/>
<path d="M126.111 111.213C124.599 112.175 122.107 114.26 128.123 114.688C134.095 115.114 137.378 113.062 138.211 111.213H126.111Z" fill="#A15927"/>
<path d="M126.954 121.424C121.022 121.424 119.634 115.57 119.621 115.511C119.563 115.252 119.725 114.995 119.984 114.937C120.243 114.879 120.5 115.041 120.558 115.3C120.607 115.514 121.801 120.464 126.953 120.464C127.218 120.464 127.434 120.679 127.434 120.944C127.435 121.209 127.22 121.424 126.954 121.424Z" fill="#7D310B"/>
<path d="M114.248 123.308C114.248 123.308 124.664 126.931 129.871 123.987C129.871 123.987 130.852 126.704 128.663 128.44C128.663 128.44 124.258 130.719 113.417 127.006C113.417 127.006 113.418 124.214 114.248 123.308Z" fill="#2A2410"/>
<path d="M127.092 158.992C127.072 159.144 127.049 159.302 127.022 159.465C126.931 160.038 126.809 160.674 126.648 161.342C126.259 162.95 125.634 164.738 124.637 166.251C124.549 166.382 124.406 166.455 124.259 166.455C124.173 166.455 124.087 166.43 124.01 166.38C123.802 166.242 123.743 165.961 123.881 165.753C125.16 163.813 125.79 161.317 126.1 159.461C126.138 159.219 126.175 158.986 126.204 158.768C126.24 158.897 126.279 159.019 126.317 159.135C126.326 159.128 126.335 159.121 126.346 159.117C126.475 159.054 126.62 159.056 126.74 159.115C126.855 159.074 126.968 159.04 127.092 158.992Z" fill="#7D310B"/>
<path d="M127.697 165.022C127.674 165.257 127.477 165.432 127.249 165.432C127.233 165.432 127.217 165.432 127.204 165.43C126.955 165.405 126.774 165.183 126.796 164.934C126.801 164.909 126.97 163.073 126.649 161.343C126.545 160.768 126.384 160.204 126.144 159.724C126.103 159.64 126.09 159.547 126.101 159.461C126.119 159.33 126.196 159.205 126.318 159.135C126.327 159.128 126.336 159.121 126.347 159.117C126.476 159.054 126.621 159.056 126.741 159.115C126.832 159.156 126.906 159.226 126.956 159.321C126.979 159.369 127.001 159.416 127.022 159.466C128.016 161.628 127.711 164.882 127.697 165.022Z" fill="#7D310B"/>
<path d="M161.183 133.125C161.183 133.125 157.367 132.36 147.518 140.732C140.763 146.474 132.68 153.067 132.68 153.067L143.338 175.612C143.338 175.612 163.268 161.151 167.643 155.748C172.719 149.479 172.829 137.852 161.183 133.125Z" fill="#2A2410"/>
<path d="M167.417 156.384C167.232 156.569 165.733 158.049 163.575 160.1C163.259 160.401 162.933 160.709 162.588 161.036L162.584 161.04C159.336 164.095 155 168.047 151.328 170.935C151.35 170.572 151.372 170.209 151.393 169.843C152.587 168.881 153.846 167.818 155.108 166.722C157.572 164.581 160.043 162.303 162.082 160.387C162.1 160.369 162.122 160.347 162.144 160.329C164.862 157.767 166.792 155.862 166.843 155.811C167.003 155.651 167.26 155.651 167.416 155.811C167.452 155.847 167.478 155.884 167.496 155.927C167.569 156.076 167.54 156.261 167.417 156.384Z" fill="#5B533E"/>
<path d="M162.268 161.039C162.323 161.057 162.382 161.063 162.443 161.056L167.918 160.398C168.141 160.371 168.3 160.169 168.273 159.946C168.246 159.723 168.043 159.564 167.821 159.591L162.346 160.249C162.123 160.276 161.964 160.478 161.991 160.701C162.01 160.862 162.122 160.991 162.268 161.039Z" fill="#5B533E"/>
<path d="M131.45 108.187C131.45 108.187 127.189 107.89 127.656 115.405C127.844 118.431 114.368 117.042 110.038 116.965C105.709 116.888 107.157 110.921 107.932 108.188C109.99 100.928 128.747 100.085 131.45 108.187Z" fill="#A15927"/>
<path d="M111.336 117.021C111.137 117.021 110.951 116.897 110.882 116.698C110.837 116.569 109.796 113.484 111.007 109.521C111.084 109.267 111.353 109.124 111.607 109.202C111.861 109.28 112.004 109.548 111.926 109.802C110.811 113.451 111.78 116.355 111.79 116.384C111.876 116.635 111.743 116.908 111.492 116.995C111.441 117.012 111.388 117.021 111.336 117.021Z" fill="#7D310B"/>
<path d="M115.174 117.239C114.975 117.239 114.789 117.115 114.721 116.916C114.676 116.787 113.635 113.702 114.846 109.739C114.923 109.485 115.191 109.342 115.446 109.42C115.7 109.498 115.843 109.766 115.765 110.02C114.65 113.669 115.619 116.573 115.629 116.602C115.715 116.853 115.582 117.126 115.331 117.213C115.279 117.23 115.226 117.239 115.174 117.239Z" fill="#7D310B"/>
<path d="M119.126 117.239C118.927 117.239 118.741 117.115 118.672 116.916C118.627 116.787 117.586 113.702 118.797 109.739C118.874 109.485 119.143 109.342 119.397 109.42C119.651 109.498 119.794 109.766 119.716 110.02C118.601 113.669 119.57 116.573 119.58 116.602C119.666 116.853 119.533 117.126 119.282 117.213C119.231 117.23 119.178 117.239 119.126 117.239Z" fill="#7D310B"/>
<path d="M123.522 117.404C123.323 117.404 123.137 117.279 123.068 117.081C123.018 116.936 121.852 113.484 123.062 109.521C123.139 109.267 123.408 109.124 123.662 109.202C123.916 109.28 124.059 109.548 123.981 109.802C122.861 113.468 123.964 116.733 123.975 116.766C124.062 117.017 123.929 117.291 123.678 117.377C123.627 117.396 123.574 117.404 123.522 117.404Z" fill="#7D310B"/>
<path d="M234.308 108.187C234.308 108.187 238.569 107.89 238.102 115.405C237.914 118.431 251.39 117.042 255.719 116.965C260.048 116.888 258.6 110.921 257.825 108.188C255.768 100.928 237.011 100.085 234.308 108.187Z" fill="#A15927"/>
<path d="M254.421 117.021C254.369 117.021 254.316 117.012 254.263 116.994C254.012 116.907 253.88 116.633 253.967 116.383C253.983 116.334 254.942 113.438 253.831 109.802C253.754 109.548 253.897 109.28 254.15 109.202C254.404 109.124 254.672 109.267 254.75 109.521C255.961 113.484 254.919 116.569 254.875 116.698C254.806 116.897 254.62 117.021 254.421 117.021Z" fill="#7D310B"/>
<path d="M250.584 117.239C250.532 117.239 250.479 117.23 250.426 117.212C250.175 117.125 250.043 116.851 250.13 116.601C250.146 116.552 251.105 113.656 249.994 110.02C249.917 109.766 250.059 109.498 250.313 109.42C250.566 109.342 250.835 109.485 250.913 109.739C252.124 113.702 251.082 116.787 251.038 116.916C250.969 117.115 250.783 117.239 250.584 117.239Z" fill="#7D310B"/>
<path d="M246.631 117.239C246.579 117.239 246.526 117.23 246.473 117.212C246.222 117.125 246.09 116.851 246.177 116.601C246.193 116.552 247.152 113.656 246.041 110.02C245.964 109.766 246.107 109.498 246.361 109.42C246.614 109.342 246.883 109.485 246.961 109.739C248.172 113.702 247.13 116.787 247.085 116.916C247.016 117.115 246.83 117.239 246.631 117.239Z" fill="#7D310B"/>
<path d="M242.236 117.404C242.184 117.404 242.131 117.395 242.079 117.377C241.828 117.29 241.695 117.017 241.782 116.766C241.793 116.733 242.893 113.454 241.777 109.802C241.7 109.548 241.843 109.28 242.096 109.202C242.349 109.124 242.618 109.267 242.696 109.521C243.907 113.484 242.741 116.935 242.691 117.081C242.621 117.28 242.435 117.404 242.236 117.404Z" fill="#7D310B"/>
<path d="M195.609 97.189C195.609 97.189 202.778 97.931 201.946 91.654C201.946 91.654 205.781 89.557 204.325 85.169C203.274 82.003 199.972 83.096 199.972 83.096C199.972 83.096 202.19 76.653 197.048 75.734C197.048 75.734 198.521 70.63 194.954 69.295C191.387 67.96 188.321 72.302 188.321 72.302C188.321 72.302 187.709 68.162 183.934 68.877C180.159 69.591 179.754 74.278 179.754 74.278C179.754 74.278 176.539 70.749 173.573 72.728C170.607 74.707 171.313 79.321 171.313 79.321C171.313 79.321 166.456 78.685 163.707 82.751C160.959 86.817 164.916 89.142 164.916 89.142C164.916 89.142 160.735 90.634 160.444 93.471C160.153 96.308 165.316 96.733 165.316 96.733C165.316 96.733 163.763 101.323 167.443 102.506C171.123 103.689 174.658 101.477 174.658 101.477L195.609 97.189Z" fill="#2A2410"/>
<path d="M194.637 101.608C194.637 101.608 195.306 96.597 199.361 96.999C203.416 97.401 205.821 110.233 198.396 111.124L194.637 101.608Z" fill="#7D310B"/>
<path d="M179.031 127.86C179.031 127.86 178.315 129.611 185.798 130.687C189.746 131.255 194.238 129.664 196.362 128.017C197.226 127.349 197.706 126.859 197.706 126.859C195.829 121.525 196.326 117.844 196.491 116.96C196.517 116.825 196.534 116.756 196.534 116.756L176.508 109.796L179.031 127.86Z" fill="#A15927"/>
<path d="M180.122 116.843C180.122 116.843 186.239 128.705 196.362 128.017C197.226 127.349 197.706 126.859 197.706 126.859C195.829 121.525 196.326 117.844 196.491 116.96L180.122 116.843Z" fill="#2A2410"/>
<path d="M188.256 122.404C196.203 122.846 201.913 118.669 201.739 111.931C201.699 110.306 201.466 107.978 201.163 105.56C201.16 105.535 201.157 105.511 201.154 105.486C201.089 104.973 201.021 104.453 200.953 103.935C200.904 103.56 200.852 103.185 200.799 102.814C200.202 98.509 199.54 94.624 199.54 94.624C196.952 84.085 185.817 81.562 177.897 86.791C169.98 92.021 175.036 104.584 175.939 110.935C176.842 117.289 181.441 122.027 188.256 122.404Z" fill="#A15927"/>
<path d="M194.743 111.217C191.379 112.045 188.735 109.849 188.705 109.823C188.545 109.687 188.525 109.447 188.661 109.287C188.797 109.127 189.037 109.107 189.197 109.243C189.325 109.351 192.282 111.786 195.839 110.003C196.027 109.909 196.256 109.985 196.35 110.173C196.444 110.361 196.368 110.59 196.18 110.684C195.692 110.929 195.211 111.102 194.743 111.217Z" fill="#2A2410"/>
<path d="M186.226 101.886C186.351 102.602 186.823 103.118 187.281 103.038C187.739 102.958 188.008 102.313 187.883 101.597C187.758 100.881 187.286 100.366 186.828 100.445C186.371 100.525 186.101 101.17 186.226 101.886Z" fill="#2A2410"/>
<path d="M194.249 100.893C194.374 101.609 194.846 102.124 195.304 102.045C195.762 101.965 196.031 101.32 195.906 100.604C195.781 99.888 195.309 99.373 194.851 99.452C194.394 99.532 194.125 100.177 194.249 100.893Z" fill="#2A2410"/>
<path d="M184.599 98.683C182.464 99.429 181.541 97.16 183.365 95.683C184.198 95.009 185.128 94.405 186.146 94.268C189.038 93.879 189.387 95.908 188.043 96.92C187.401 97.404 185.826 98.254 184.599 98.683Z" fill="#2A2410"/>
<path d="M197.196 97.031C199.456 96.942 199.482 94.492 197.243 93.788C196.221 93.466 195.134 93.246 194.137 93.492C191.304 94.191 191.724 96.207 193.345 96.655C194.12 96.869 195.897 97.082 197.196 97.031Z" fill="#2A2410"/>
<path d="M200.3 105.785C200.6 105.724 200.891 105.648 201.164 105.561C201.161 105.536 201.158 105.512 201.155 105.487C201.09 104.974 201.022 104.454 200.954 103.936C200.905 103.561 200.853 103.186 200.8 102.815C200.455 102.843 200.091 102.893 199.72 102.97C197.789 103.367 196.356 104.317 196.515 105.095C196.675 105.872 198.37 106.181 200.3 105.785Z" fill="#7D310B"/>
<path d="M193.847 107.285C193.906 107.273 193.962 107.246 194.01 107.203C195.606 105.774 195.859 105.096 195.894 104.975C195.927 104.861 195.899 104.739 195.822 104.65L192.801 101.159C192.792 101.149 192.782 101.138 192.772 101.129C192.147 100.559 191.876 99.248 191.611 97.72C191.578 97.53 191.396 97.402 191.206 97.435C191.014 97.472 190.888 97.65 190.921 97.84C191.207 99.486 191.508 100.908 192.285 101.632L195.141 104.932C194.99 105.183 194.579 105.753 193.544 106.679C193.399 106.808 193.387 107.03 193.516 107.174C193.602 107.272 193.729 107.31 193.847 107.285Z" fill="#2A2410"/>
<path d="M179.76 106.931C179.92 107.708 181.614 108.017 183.544 107.62C185.474 107.224 186.909 106.272 186.749 105.494C186.589 104.717 184.895 104.408 182.965 104.805C181.035 105.202 179.6 106.153 179.76 106.931Z" fill="#7D310B"/>
<path d="M173.662 99.998C173.757 100.233 173.829 100.363 173.829 100.363C173.829 100.363 175.676 100.776 176.97 104.109L179.28 103.713C179.28 103.713 179.791 100.728 178.276 96.155C178.156 95.788 178.094 95.419 178.08 95.047C177.966 90.704 184.886 85.865 190.189 86.179C195.941 86.524 198.375 91.404 198.375 91.404C198.375 91.404 199.237 93.2 199.637 95.358C199.586 93.101 199.26 88.948 195.149 85.287C189.003 79.8 178.118 81.546 174.556 88.369C171.552 94.124 173.096 98.705 173.662 99.998Z" fill="#2A2410"/>
<path d="M173.662 99.998C173.757 100.233 173.829 100.363 173.829 100.363C173.829 100.363 175.676 100.776 176.97 104.109L179.28 103.713C179.28 103.713 179.791 100.728 178.276 96.155C178.156 95.788 178.094 95.419 178.08 95.047L173.662 99.998Z" fill="#7D310B"/>
<path d="M180.556 90.161C180.556 90.161 184.272 88.13 186.256 88.633C188.24 89.137 191.105 89.761 192.977 88.011C194.849 86.261 197.778 90.363 197.778 90.363C197.778 90.363 194.156 82.856 187.892 85.314C181.629 87.772 181.576 87.156 180.556 90.161Z" fill="#2A2410"/>
<path d="M170.202 100.959C169.27 100.221 168.705 99.245 168.284 98.175C168.284 98.175 178.061 84.585 188.284 84.821C198.507 85.057 199.653 90.364 199.653 90.364V95.359C199.653 95.359 197.613 89.335 188.709 90.364C179.805 91.393 173.678 100.317 173.678 100.317C173.678 100.317 171.097 100.049 170.202 100.959Z" fill="#E0AD3A"/>
<path d="M193.526 113.935C193.695 113.874 193.798 113.823 193.815 113.814C194.016 113.711 194.095 113.465 193.993 113.264C193.89 113.064 193.646 112.982 193.444 113.086C193.385 113.115 192.062 113.76 190.851 112.882C190.668 112.749 190.413 112.79 190.28 112.973C190.147 113.156 190.188 113.411 190.371 113.544C191.626 114.454 192.953 114.142 193.526 113.935Z" fill="#7D310B"/>
<path d="M176.296 101.995C176.296 101.995 173.593 98.724 170.186 100.959C166.779 103.194 170.59 115.68 177.583 113.031L176.296 101.995Z" fill="#A15927"/>
<path d="M175.529 108.704C175.553 108.699 175.577 108.692 175.601 108.681C175.778 108.603 175.857 108.395 175.779 108.219C175.712 108.068 174.099 104.53 170.658 104.446C170.465 104.441 170.304 104.594 170.299 104.788C170.294 104.981 170.447 105.142 170.641 105.146C173.643 105.219 175.125 108.471 175.139 108.504C175.206 108.656 175.371 108.737 175.529 108.704Z" fill="#2A2410"/>
<path d="M172.255 107.973C172.341 107.955 172.421 107.905 172.474 107.827C172.48 107.819 173.038 107 173.723 106.165C173.846 106.015 173.824 105.795 173.674 105.672C173.524 105.549 173.304 105.571 173.181 105.721C172.475 106.581 171.918 107.399 171.894 107.433C171.785 107.593 171.827 107.811 171.987 107.92C172.069 107.974 172.166 107.991 172.255 107.973Z" fill="#2A2410"/>
<path d="M172.146 105.45C172.146 105.45 170.526 105.308 171.051 107.121C171.47 108.569 173.357 108.412 173.357 108.412L173.959 111.188C174.116 111.953 174.687 112.852 175.16 112.431C175.168 110.447 174.906 108.957 174.305 107.088C174.305 107.086 173.496 106.123 172.146 105.45Z" fill="#FCF9ED"/>
<path d="M420.365 109.439H344.624V112.128H420.365C421.107 112.128 421.71 111.526 421.71 110.783C421.71 110.041 421.108 109.439 420.365 109.439Z" fill="#2A2410"/>
<path d="M345.705 103.641V117.926L335.176 111.332L345.705 103.641Z" fill="#2A2410"/>
<path d="M378.454 101.041V103.641H370.483V101.581L374.078 98.256C374.76 97.617 374.859 97.233 374.859 96.892C374.859 96.409 374.532 96.11 373.893 96.11C373.296 96.11 372.728 96.437 372.43 97.034L369.9 95.77C370.625 94.406 372.06 93.468 374.205 93.468C376.564 93.468 378.226 94.69 378.226 96.58C378.226 97.56 377.97 98.441 376.521 99.749L375.1 101.042L378.454 101.041Z" fill="#2A2410"/>
<path d="M73.319 447.803C89.4104 447.803 102.455 446.211 102.455 444.248C102.455 442.285 89.4104 440.693 73.319 440.693C57.2276 440.693 44.183 442.285 44.183 444.248C44.183 446.211 57.2276 447.803 73.319 447.803Z" fill="#C2BDA2"/>
<path d="M72.756 390.255C72.168 390.255 71.692 389.779 71.692 389.191V319.629C71.692 319.041 72.168 318.565 72.756 318.565C73.344 318.565 73.82 319.041 73.82 319.629V389.191C73.821 389.779 73.345 390.255 72.756 390.255Z" fill="#4B6F32"/>
<path d="M102.454 387.634L101.329 391.803L101.113 392.605L100.098 396.372L99.882 397.174L89.792 434.577L89.575 435.379L88.558 439.147L88.343 439.949L87.01 444.89C77.349 446.087 67.895 446.225 58.499 444.89L57.166 439.949L56.951 439.147L55.935 435.379L55.718 434.577L45.628 397.174L45.412 396.372L44.397 392.605L44.18 391.803L43.055 387.634H102.454Z" fill="#2A2410"/>
<path d="M101.33 391.802L101.113 392.604H44.399L44.183 391.802H101.33Z" fill="#5B533E"/>
<path d="M100.099 396.372L99.882 397.174H45.63L45.414 396.372H100.099Z" fill="#5B533E"/>
<path d="M89.793 434.577L89.576 435.379H55.937L55.72 434.577H89.793Z" fill="#5B533E"/>
<path d="M88.559 439.146L88.345 439.948H57.168L56.953 439.146H88.559Z" fill="#5B533E"/>
<path d="M76.561 334.818C75.279 335.129 74.03 334.594 73.337 333.618C73.097 333.285 72.917 332.903 72.83 332.483C72.781 332.27 72.759 332.052 72.759 331.823C72.759 331.103 73.01 330.41 73.468 329.859C77.538 324.932 98.139 301.101 107.796 311.069C119.466 323.104 87.822 332.079 76.561 334.818Z" fill="#678E43"/>
<path d="M94.784 320.928L73.337 333.618C73.097 333.285 72.917 332.903 72.83 332.483L94.151 319.864C94.451 319.69 94.827 319.788 95.002 320.083C95.176 320.377 95.078 320.753 94.784 320.928Z" fill="#4B6F32"/>
<path d="M72.758 343.613C72.758 343.842 72.736 344.06 72.687 344.273C72.594 344.693 72.419 345.075 72.179 345.408C71.481 346.384 70.231 346.919 68.949 346.608C57.694 343.869 26.05 334.9 37.72 322.859C47.371 312.897 67.972 336.722 72.048 341.649C72.507 342.2 72.758 342.898 72.758 343.613Z" fill="#678E43"/>
<path d="M72.688 344.273C72.595 344.693 72.42 345.075 72.18 345.408L50.728 332.718C50.439 332.549 50.34 332.167 50.515 331.872C50.684 331.577 51.066 331.479 51.361 331.654L72.688 344.273Z" fill="#4B6F32"/>
<path d="M75.105 319.453C75.018 320.168 74.69 320.828 74.172 321.324C74.008 321.477 73.834 321.613 73.648 321.728C73.282 321.952 72.879 322.088 72.47 322.142C71.281 322.306 70.037 321.771 69.377 320.631C63.594 310.598 48.269 281.497 65.034 281.639C78.907 281.759 75.863 313.108 75.105 319.453Z" fill="#678E43"/>
<path d="M73.648 321.728C73.282 321.952 72.879 322.088 72.47 322.142L66.867 297.858C66.791 297.531 66.998 297.198 67.331 297.116C67.664 297.045 67.997 297.247 68.073 297.585L73.648 321.728Z" fill="#4B6F32"/>
<path d="M76.561 360.122C75.279 360.433 74.03 359.898 73.337 358.922C73.097 358.589 72.917 358.207 72.83 357.787C72.781 357.574 72.759 357.356 72.759 357.127C72.759 356.412 73.01 355.714 73.468 355.163C77.538 350.237 98.139 326.411 107.796 336.373C119.466 348.414 87.822 357.383 76.561 360.122Z" fill="#678E43"/>
<path d="M94.784 346.237L73.337 358.922C73.097 358.589 72.917 358.207 72.83 357.787L94.151 345.168C94.451 344.993 94.827 345.092 95.002 345.386C95.176 345.681 95.078 346.063 94.784 346.237Z" fill="#4B6F32"/>
<path d="M72.758 368.917C72.758 369.146 72.736 369.364 72.687 369.577C72.594 369.997 72.419 370.385 72.179 370.718C71.475 371.695 70.231 372.224 68.949 371.913C57.694 369.18 26.05 360.205 37.72 348.164C47.371 338.202 67.972 362.027 72.048 366.954C72.507 367.51 72.758 368.202 72.758 368.917Z" fill="#678E43"/>
<path d="M72.688 369.577C72.595 369.997 72.42 370.385 72.18 370.718L50.728 358.028C50.439 357.853 50.34 357.477 50.515 357.177C50.684 356.888 51.066 356.79 51.361 356.959L72.688 369.577Z" fill="#4B6F32"/>
<path d="M76.561 383.958C75.279 384.269 74.03 383.734 73.337 382.758C73.097 382.425 72.917 382.043 72.83 381.623C72.781 381.41 72.759 381.192 72.759 380.963C72.759 380.243 73.01 379.55 73.468 378.999C77.538 374.072 98.139 350.241 107.796 360.209C119.466 372.245 87.822 381.22 76.561 383.958Z" fill="#678E43"/>
<path d="M94.784 370.068L73.337 382.758C73.097 382.425 72.917 382.043 72.83 381.623L94.151 369.004C94.451 368.829 94.827 368.928 95.002 369.222C95.176 369.517 95.078 369.893 94.784 370.068Z" fill="#4B6F32"/>
<path d="M362.513 432.777C362.513 435.334 335.635 437.407 302.48 437.407C269.324 437.407 242.447 435.334 242.447 432.777C242.447 430.22 269.325 428.148 302.48 428.148C335.635 428.148 362.513 430.221 362.513 432.777Z" fill="#C2BDA2"/>
<path d="M339.74 306.787H262.859C262.103 306.787 261.49 306.174 261.49 305.418V301.759C261.49 301.003 262.103 300.39 262.859 300.39H339.74C340.496 300.39 341.109 301.003 341.109 301.759V305.417C341.109 306.174 340.496 306.787 339.74 306.787Z" fill="#2A2410"/>
<path d="M284.08 288.207V317.856C284.08 319.007 283.139 319.95 281.988 319.95H277.278C276.127 319.95 275.186 319.007 275.186 317.856V288.207C275.186 287.056 276.127 286.115 277.278 286.115H281.988C283.139 286.115 284.08 287.055 284.08 288.207Z" fill="#5B533E"/>
<path d="M275.269 291.416V314.647C275.269 315.55 274.531 316.286 273.629 316.286H269.939C269.038 316.286 268.3 315.55 268.3 314.647V291.416C268.3 290.515 269.038 289.777 269.939 289.777H273.629C274.531 289.776 275.269 290.515 275.269 291.416Z" fill="#2A2410"/>
<path d="M328.31 287.948V317.597C328.31 318.748 327.369 319.689 326.218 319.689H321.508C320.357 319.689 319.416 318.748 319.416 317.597V287.948C319.416 286.797 320.357 285.854 321.508 285.854H326.218C327.369 285.853 328.31 286.796 328.31 287.948Z" fill="#5B533E"/>
<path d="M335.196 291.157V314.387C335.196 315.288 334.458 316.026 333.555 316.026H329.867C328.966 316.026 328.228 315.288 328.228 314.387V291.157C328.228 290.256 328.966 289.518 329.867 289.518H333.555C334.458 289.517 335.196 290.255 335.196 291.157Z" fill="#2A2410"/>
<path d="M339.74 345.763H262.859C262.103 345.763 261.49 345.15 261.49 344.394V340.735C261.49 339.979 262.103 339.366 262.859 339.366H339.74C340.496 339.366 341.109 339.979 341.109 340.735V344.393C341.109 345.15 340.496 345.763 339.74 345.763Z" fill="#2A2410"/>
<path d="M284.08 327.183V356.832C284.08 357.983 283.139 358.926 281.988 358.926H277.278C276.127 358.926 275.186 357.983 275.186 356.832V327.183C275.186 326.032 276.127 325.091 277.278 325.091H281.988C283.139 325.091 284.08 326.031 284.08 327.183Z" fill="#5B533E"/>
<path d="M275.269 330.392V353.622C275.269 354.525 274.531 355.261 273.629 355.261H269.939C269.038 355.261 268.3 354.525 268.3 353.622V330.392C268.3 329.491 269.038 328.753 269.939 328.753H273.629C274.531 328.753 275.269 329.491 275.269 330.392Z" fill="#2A2410"/>
<path d="M328.31 326.923V356.572C328.31 357.723 327.369 358.664 326.218 358.664H321.508C320.357 358.664 319.416 357.723 319.416 356.572V326.923C319.416 325.772 320.357 324.829 321.508 324.829H326.218C327.369 324.829 328.31 325.772 328.31 326.923Z" fill="#5B533E"/>
<path d="M335.196 330.133V353.363C335.196 354.264 334.458 355.002 333.555 355.002H329.867C328.966 355.002 328.228 354.264 328.228 353.363V330.133C328.228 329.232 328.966 328.494 329.867 328.494H333.555C334.458 328.493 335.196 329.232 335.196 330.133Z" fill="#2A2410"/>
<path d="M339.74 387.135H262.859C262.103 387.135 261.49 386.522 261.49 385.766V382.107C261.49 381.351 262.103 380.738 262.859 380.738H339.74C340.496 380.738 341.109 381.351 341.109 382.107V385.765C341.109 386.522 340.496 387.135 339.74 387.135Z" fill="#2A2410"/>
<path d="M284.08 368.554V398.203C284.08 399.354 283.139 400.297 281.988 400.297H277.278C276.127 400.297 275.186 399.354 275.186 398.203V368.554C275.186 367.403 276.127 366.462 277.278 366.462H281.988C283.139 366.462 284.08 367.403 284.08 368.554Z" fill="#5B533E"/>
<path d="M275.269 371.763V394.993C275.269 395.896 274.531 396.632 273.629 396.632H269.939C269.038 396.632 268.3 395.896 268.3 394.993V371.763C268.3 370.862 269.038 370.124 269.939 370.124H273.629C274.531 370.124 275.269 370.862 275.269 371.763Z" fill="#2A2410"/>
<path d="M328.31 368.295V397.944C328.31 399.095 327.369 400.036 326.218 400.036H321.508C320.357 400.036 319.416 399.095 319.416 397.944V368.295C319.416 367.144 320.357 366.201 321.508 366.201H326.218C327.369 366.201 328.31 367.143 328.31 368.295Z" fill="#5B533E"/>
<path d="M335.196 371.504V394.734C335.196 395.635 334.458 396.373 333.555 396.373H329.867C328.966 396.373 328.228 395.635 328.228 394.734V371.504C328.228 370.603 328.966 369.865 329.867 369.865H333.555C334.458 369.865 335.196 370.603 335.196 371.504Z" fill="#2A2410"/>
<path d="M261.491 272.499H255.285V432.778H261.491V272.499Z" fill="#5B533E"/>
<path d="M347.314 272.499H341.109V432.778H347.314V272.499Z" fill="#5B533E"/>
<path d="M347.315 400.036H255.285V406.141H347.315V400.036Z" fill="#5B533E"/>
<path d="M412.77 465.462C412.77 467.214 399.255 468.635 382.584 468.635C365.913 468.635 352.398 467.215 352.398 465.462C352.398 463.71 365.913 462.289 382.584 462.289C399.255 462.289 412.77 463.71 412.77 465.462Z" fill="#C2BDA2"/>
<path d="M387.898 134.129H377.734V464.162H387.898V134.129Z" fill="#C2BDA2"/>
<path d="M391.284 342.565H374.259V465.309H391.284V342.565Z" fill="#9A957E"/>
</g>
</g>
<defs>
<clipPath id="clip0_1_1856">
<rect width="383" height="500" fill="white"/>
</clipPath>
<clipPath id="clip1_1_1856">
<rect width="750" height="500" fill="white"/>
</clipPath>
</defs>
</svg>
