<svg width="383" height="500" viewBox="0 0 383 500" fill="none" xmlns="http://www.w3.org/2000/svg">
<g clip-path="url(#clip0_1_1856)">
<g clip-path="url(#clip1_1_1856)">
<path d="M383.027 0H-366.973V500H383.027V0Z" fill="#FCF9ED"/>
<path d="M383.027 400.13H-367V500H383.027V400.13Z" fill="#DDD9C2"/>
<path d="M383.027 367.555H-367V378.722H383.027V367.555Z" fill="#ECE9D9"/>
<path d="M383.027 347.309H-367V358.476H383.027V347.309Z" fill="#ECE9D9"/>
<path d="M383.027 388.962H-367V400.129H383.027V388.962Z" fill="#C2BDA2"/>
<path d="M324.442 288.207H278.518C278.273 288.207 278.075 288.009 278.075 287.764V278.03C278.075 277.785 278.273 277.587 278.518 277.587H324.442C324.687 277.587 324.885 277.786 324.885 278.03V287.764C324.885 288.009 324.687 288.207 324.442 288.207Z" fill="#ECE9D9"/>
<path d="M356.546 301.966H310.622C310.377 301.966 310.179 301.767 310.179 301.523V291.789C310.179 291.544 310.377 291.345 310.622 291.345H356.546C356.791 291.345 356.989 291.544 356.989 291.789V301.523C356.989 301.768 356.791 301.966 356.546 301.966Z" fill="#ECE9D9"/>
<path d="M315.131 37.544H361.055C361.3 37.544 361.498 37.345 361.498 37.1V27.366C361.498 27.121 361.3 26.922 361.055 26.922H315.131C314.886 26.922 314.688 27.12 314.688 27.366V37.1C314.688 37.345 314.886 37.544 315.131 37.544Z" fill="#ECE9D9"/>
<path d="M283.027 51.303H328.951C329.196 51.303 329.395 51.104 329.395 50.86V41.126C329.395 40.881 329.196 40.683 328.951 40.683H283.027C282.782 40.683 282.584 40.882 282.584 41.126V50.86C282.583 51.104 282.782 51.303 283.027 51.303Z" fill="#ECE9D9"/>
<path d="M33.302 79.185H79.226C79.471 79.185 79.67 78.986 79.67 78.742V69.008C79.67 68.763 79.472 68.564 79.226 68.564H33.302C33.057 68.564 32.858 68.763 32.858 69.008V78.742C32.859 78.986 33.057 79.185 33.302 79.185Z" fill="#ECE9D9"/>
<path d="M62.384 184.9H108.308C108.553 184.9 108.752 184.701 108.752 184.457V174.723C108.752 174.478 108.553 174.28 108.308 174.28H62.384C62.139 174.28 61.941 174.479 61.941 174.723V184.457C61.941 184.702 62.139 184.9 62.384 184.9Z" fill="#ECE9D9"/>
<path d="M310.622 180.003H356.546C356.791 180.003 356.989 179.804 356.989 179.56V169.826C356.989 169.581 356.79 169.383 356.546 169.383H310.622C310.377 169.383 310.179 169.582 310.179 169.826V179.56C310.178 179.805 310.377 180.003 310.622 180.003Z" fill="#ECE9D9"/>
<path d="M267.534 62.931H126.043V267.357H267.534V62.931Z" fill="#DDD9C2"/>
<path d="M260.094 70.371H133.484V259.919H260.094V70.371Z" fill="#ECE9D9"/>
<g opacity="0.5">
<path d="M218.002 70.371L133.484 154.889V133.157L196.267 70.371H218.002Z" fill="#FCF9ED"/>
</g>
<g opacity="0.5">
<path d="M260.094 74.201V103.53L133.484 230.14V200.811L260.094 74.201Z" fill="#FCF9ED"/>
</g>
<g opacity="0.5">
<path d="M260.094 207.846V223.484L223.659 259.919H208.021L260.094 207.846Z" fill="#FCF9ED"/>
</g>
<g opacity="0.5">
<path d="M260.094 143.289V158.445L158.617 259.919H143.464L260.094 143.289Z" fill="#FCF9ED"/>
</g>
<path d="M260.095 155.743H133.483V164.664H260.095V155.743Z" fill="#DDD9C2"/>
<path d="M307.538 465.981C307.538 468.942 252.241 471.342 184.029 471.342C115.817 471.342 60.52 468.942 60.52 465.981C60.52 463.02 115.817 460.619 184.029 460.619C252.241 460.619 307.538 463.02 307.538 465.981Z" fill="#C2BDA2"/>
<path d="M198.703 362.501L196.686 379.924C196.686 379.924 202.268 382.837 208.475 379.536L212.379 364.781L198.703 362.501Z" fill="#E69862"/>
<path d="M238.057 400.445H192.818C192.481 399.834 192.298 398.967 192.223 397.933C191.94 394.106 193.16 387.999 193.758 384.149C193.831 383.699 193.893 383.279 193.941 382.9C194.024 382.257 194.076 381.721 194.076 381.327C194.076 378.184 196.858 378.723 196.858 378.723C201.436 383.212 206.619 376.48 209.646 378.688C209.646 378.688 210.949 379.622 214.542 382.854C218.131 386.085 224.241 388.218 229.441 390.394C236.154 393.2 238.058 396.003 238.43 397.934C238.722 399.462 238.057 400.445 238.057 400.445Z" fill="#E0AD3A"/>
<path d="M238.057 400.445H192.818C192.481 399.834 192.298 398.967 192.223 397.933H238.429C238.722 399.462 238.057 400.445 238.057 400.445Z" fill="#CA8A24"/>
<path d="M239.492 403.969H190.765C189.944 403.969 189.279 403.304 189.279 402.482V401.931C189.279 401.11 189.944 400.445 190.765 400.445H239.492C240.313 400.445 240.978 401.11 240.978 401.931V402.482C240.979 403.303 240.313 403.969 239.492 403.969Z" fill="#5B533E"/>
<path d="M197.433 400.445H196.089C197.43 398.913 198.685 396.562 198.521 393.201C198.303 388.731 195.621 385.718 193.758 384.148C193.831 383.698 193.893 383.278 193.941 382.899C195.95 384.434 199.335 387.795 199.598 393.148C199.755 396.357 198.702 398.751 197.433 400.445Z" fill="#CA8A24"/>
<path d="M213.774 385.522C213.439 385.522 213.135 385.295 213.051 384.956C212.952 384.557 213.195 384.152 213.595 384.053L216.421 383.351C216.82 383.251 217.225 383.495 217.324 383.895C217.423 384.295 217.18 384.699 216.78 384.798L213.954 385.5C213.894 385.514 213.833 385.522 213.774 385.522Z" fill="#CA8A24"/>
<path d="M210.965 383.169C210.63 383.169 210.326 382.942 210.242 382.603C210.143 382.204 210.386 381.799 210.786 381.7L213.612 380.998C214.011 380.898 214.416 381.142 214.515 381.542C214.614 381.941 214.371 382.346 213.971 382.445L211.145 383.147C211.085 383.162 211.025 383.169 210.965 383.169Z" fill="#CA8A24"/>
<path d="M216.6 387.164C216.266 387.164 215.961 386.937 215.877 386.598C215.778 386.199 216.021 385.794 216.421 385.695L219.247 384.993C219.647 384.893 220.051 385.137 220.15 385.537C220.249 385.936 220.006 386.341 219.606 386.44L216.78 387.142C216.72 387.157 216.659 387.164 216.6 387.164Z" fill="#CA8A24"/>
<path d="M219.425 388.743C219.091 388.743 218.786 388.516 218.702 388.177C218.603 387.778 218.846 387.373 219.246 387.274L222.072 386.572C222.472 386.472 222.876 386.717 222.975 387.116C223.074 387.515 222.831 387.92 222.431 388.019L219.605 388.721C219.545 388.736 219.485 388.743 219.425 388.743Z" fill="#CA8A24"/>
<path d="M222.507 390.204C222.173 390.204 221.868 389.977 221.784 389.638C221.685 389.238 221.928 388.834 222.328 388.735L225.154 388.033C225.554 387.934 225.958 388.177 226.057 388.577C226.156 388.976 225.913 389.381 225.513 389.48L222.687 390.182C222.627 390.197 222.566 390.204 222.507 390.204Z" fill="#CA8A24"/>
<path d="M225.849 391.449C225.514 391.449 225.21 391.222 225.126 390.883C225.027 390.484 225.27 390.079 225.67 389.98L228.496 389.279C228.896 389.179 229.3 389.423 229.399 389.823C229.498 390.222 229.255 390.627 228.855 390.726L226.029 391.428C225.968 391.442 225.908 391.449 225.849 391.449Z" fill="#CA8A24"/>
<path d="M176.373 253.065C176.373 253.065 232.604 284.999 234.825 292.736C238.504 312.435 212.379 371.806 212.379 371.806L196.865 369.081C200.432 350.627 203.676 312.526 207.424 306.489C194.122 301.905 174.632 292.798 161.112 284.305L176.373 253.065Z" fill="#506FAE"/>
<path d="M213.029 368.203C212.989 368.203 212.949 368.2 212.909 368.192L198.31 365.505C197.951 365.439 197.714 365.095 197.78 364.736C197.846 364.377 198.192 364.14 198.549 364.206L213.148 366.893C213.507 366.959 213.744 367.303 213.678 367.662C213.62 367.98 213.342 368.203 213.029 368.203Z" fill="#2D3D81"/>
<path d="M200.464 365.515C200.422 365.515 200.379 365.511 200.337 365.503C199.979 365.433 199.746 365.086 199.816 364.728C199.866 364.47 204.879 338.746 205.937 326.065C206.982 313.532 209.768 307.521 210.793 305.682C200.658 300.165 184.876 291.291 184.714 291.201C184.396 291.022 184.283 290.62 184.462 290.302C184.641 289.984 185.043 289.871 185.361 290.05C185.525 290.142 201.94 299.372 212.03 304.852C212.195 304.942 212.314 305.098 212.357 305.28C212.4 305.463 212.363 305.655 212.256 305.81C212.219 305.863 208.481 311.432 207.252 326.175C206.189 338.928 201.162 364.723 201.111 364.981C201.049 365.297 200.773 365.515 200.464 365.515Z" fill="#2D3D81"/>
<path d="M224.233 420.323C230.808 393.104 214.074 365.709 186.855 359.134C159.637 352.559 132.242 369.294 125.667 396.513C119.092 423.731 135.827 451.126 163.045 457.701C190.263 464.276 217.658 447.541 224.233 420.323Z" fill="#2A2410"/>
<path d="M174.987 445.794C154.376 445.794 137.608 429.026 137.608 408.415C137.608 387.804 154.376 371.036 174.987 371.036C195.598 371.036 212.366 387.804 212.366 408.415C212.365 429.026 195.597 445.794 174.987 445.794ZM174.987 374.491C156.281 374.491 141.063 389.709 141.063 408.415C141.063 427.121 156.281 442.339 174.987 442.339C193.693 442.339 208.911 427.121 208.911 408.415C208.911 389.71 193.693 374.491 174.987 374.491Z" fill="#5B533E"/>
<path d="M220.172 463.1H107.31C103.844 463.1 100.487 461.657 98.102 459.141C95.717 456.624 94.455 453.196 94.64 449.734C95.627 431.314 99.85 414.825 107.194 400.726C113.113 389.363 121.047 379.54 130.776 371.53C147.21 357.999 163.075 354.31 164.038 354.095C192.874 347.471 254.142 346.095 256.737 346.04C259.328 345.983 261.483 348.044 261.538 350.641C261.593 353.237 259.533 355.387 256.937 355.442C256.311 355.455 194.01 356.853 166.123 363.265L166.077 363.275C165.941 363.306 151.286 366.694 136.413 379.072C116.571 395.584 105.676 419.527 104.032 450.236C103.983 451.145 104.302 452.01 104.928 452.671C105.554 453.332 106.401 453.696 107.311 453.696H220.173C222.77 453.696 224.875 455.801 224.875 458.398C224.874 460.995 222.768 463.1 220.172 463.1Z" fill="#2A2410"/>
<path d="M254.791 382.931C254.672 382.931 254.552 382.927 254.431 382.917C237.385 381.625 229.277 373.629 225.476 367.15C221.385 360.175 221.367 353.617 221.378 352.892L230.781 353.04V353.006C230.781 353.054 230.811 357.873 233.789 362.727C237.714 369.125 244.898 372.763 255.142 373.539C257.732 373.735 259.672 375.994 259.475 378.583C259.287 381.053 257.226 382.931 254.791 382.931Z" fill="#2A2410"/>
<path d="M196.654 171.779L200.082 185.558L201.81 192.455L203.561 199.332C204.148 201.62 204.745 203.902 205.353 206.173C205.951 208.447 206.558 210.713 207.184 212.957C207.805 215.204 208.459 217.427 209.108 219.615C209.761 221.797 210.442 223.952 211.146 225.932C211.495 226.913 211.859 227.858 212.18 228.603C212.263 228.804 212.331 228.94 212.402 229.105L212.543 229.404L212.561 229.449C212.562 229.455 212.541 229.419 212.53 229.407C212.517 229.39 212.502 229.374 212.486 229.358L212.453 229.328C212.446 229.322 212.436 229.318 212.423 229.317C212.421 229.323 212.44 229.345 212.444 229.361C212.449 229.371 212.449 229.379 212.456 229.391L212.495 229.439C212.522 229.472 212.539 229.503 212.572 229.543C212.659 229.631 212.712 229.712 212.83 229.821L212.985 229.979L213.173 230.151C213.289 230.265 213.445 230.389 213.586 230.512C214.178 231.011 214.917 231.551 215.718 232.086C216.519 232.623 217.39 233.155 218.293 233.685C219.196 234.218 220.135 234.742 221.097 235.256C223.02 236.289 225.041 237.271 227.092 238.238C229.146 239.207 231.241 240.148 233.365 241.058C235.486 241.973 237.629 242.877 239.791 243.749C241.952 244.625 244.124 245.496 246.309 246.337C247.399 246.764 248.492 247.185 249.585 247.598L252.817 248.822L253.001 248.892C256.808 250.334 258.725 254.59 257.282 258.396C255.97 261.858 252.331 263.755 248.82 262.986L246.968 262.582L245.162 262.174C243.963 261.892 242.769 261.604 241.576 261.309C239.194 260.707 236.815 260.084 234.444 259.413C232.074 258.737 229.702 258.042 227.334 257.287C224.967 256.531 222.6 255.731 220.225 254.877C217.851 254.012 215.479 253.083 213.081 252.05C210.68 251.013 208.267 249.888 205.78 248.476C204.534 247.769 203.266 246.996 201.943 246.057C201.609 245.816 201.282 245.586 200.939 245.316L200.43 244.922L199.908 244.49C199.567 244.214 199.197 243.87 198.845 243.551C198.664 243.381 198.476 243.193 198.294 243.012L198.02 242.737L197.735 242.43C197.544 242.219 197.361 242.021 197.169 241.795C196.973 241.557 196.779 241.317 196.589 241.074C196.496 240.959 196.395 240.82 196.296 240.679L196 240.261C195.907 240.124 195.799 239.967 195.721 239.845L195.511 239.503C195.214 239.023 195.011 238.645 194.782 238.232C194.587 237.861 194.377 237.466 194.211 237.122C193.51 235.701 192.963 234.43 192.445 233.179C191.425 230.691 190.554 228.313 189.719 225.943C188.883 223.578 188.123 221.225 187.372 218.883C186.624 216.54 185.904 214.204 185.197 211.869C184.503 209.532 183.825 207.197 183.159 204.862L182.168 201.361L181.21 197.856C180.579 195.518 179.943 193.184 179.343 190.842C178.74 188.5 178.132 186.161 177.558 183.813L176.696 180.288L175.859 176.729C174.507 170.983 178.07 165.229 183.816 163.877C189.515 162.536 195.222 166.03 196.633 171.693L196.654 171.779Z" fill="#E69862"/>
<path d="M206.594 232.937C206.408 232.937 206.223 232.859 206.092 232.706C205.855 232.429 205.887 232.012 206.164 231.775C208.505 229.77 211.944 229.082 212.089 229.053C212.444 228.983 212.793 229.216 212.863 229.574C212.933 229.932 212.7 230.278 212.342 230.349C212.31 230.355 209.095 231.003 207.023 232.777C206.899 232.885 206.746 232.937 206.594 232.937Z" fill="#CD703A"/>
<path d="M211.073 230.658C210.978 230.658 210.881 230.637 210.789 230.593C209.053 229.763 206.57 229.574 206.546 229.572C206.182 229.546 205.909 229.229 205.935 228.866C205.961 228.502 206.285 228.227 206.641 228.256C206.753 228.264 209.4 228.466 211.358 229.402C211.687 229.559 211.826 229.954 211.669 230.282C211.556 230.52 211.32 230.658 211.073 230.658Z" fill="#CD703A"/>
<path d="M174.19 406.77C172.359 406.77 170.586 405.792 169.655 404.068C139.343 347.985 112.452 288.604 112.184 288.011C111.013 285.419 112.164 282.368 114.756 281.197C117.348 280.026 120.398 281.177 121.57 283.769C121.836 284.359 148.583 343.419 178.716 399.171C180.068 401.673 179.136 404.798 176.634 406.15C175.855 406.57 175.016 406.77 174.19 406.77Z" fill="#2A2410"/>
<path d="M188.934 405.561C188.934 413.35 182.619 419.665 174.83 419.665C167.041 419.665 160.726 413.351 160.726 405.561C160.726 397.772 167.041 391.457 174.83 391.457C182.62 391.457 188.934 397.772 188.934 405.561Z" fill="#5B533E"/>
<path d="M178.005 416C183.766 414.634 187.329 408.855 185.962 403.094C184.596 397.333 178.818 393.771 173.056 395.137C167.295 396.504 163.733 402.282 165.099 408.043C166.466 413.804 172.244 417.367 178.005 416Z" fill="#2A2410"/>
<path d="M175.535 412.053C171.956 412.053 169.043 409.141 169.043 405.561C169.043 401.981 171.955 399.069 175.535 399.069C179.114 399.069 182.027 401.981 182.027 405.561C182.027 409.141 179.115 412.053 175.535 412.053Z" fill="#5B533E"/>
<path d="M106.451 268.766C99.859 267.862 93.251 271.028 90.214 276.947C88.465 280.356 88.12 284.361 91.834 288.239C101.117 297.933 124.426 288.381 138.172 291.95C151.918 295.519 152.811 282.3 132.64 275.239C121.608 271.377 112.469 269.591 106.451 268.766Z" fill="#5B533E"/>
<path d="M175.211 414.025L164.26 441.225H168.347L178.802 414.025H175.211Z" fill="#5B533E"/>
<path d="M204.258 444.749H155.531C154.71 444.749 154.045 444.084 154.045 443.263V442.712C154.045 441.891 154.711 441.225 155.531 441.225H204.258C205.079 441.225 205.744 441.89 205.744 442.712V443.263C205.745 444.084 205.079 444.749 204.258 444.749Z" fill="#5B533E"/>
<path d="M268.909 410.29C268.529 410.383 268.15 410.424 267.775 410.424C265.576 410.424 263.58 408.919 263.048 406.687L237.791 300.621C237.189 298.098 238.68 295.556 241.139 294.838L232.332 260.987L237.438 260.094L247.029 297.667L247.446 299.172L272.513 404.432C273.132 407.049 271.521 409.67 268.909 410.29Z" fill="#2A2410"/>
<path d="M264.498 392.543C260.098 393.587 255.687 390.865 254.643 386.466L250.406 368.619L249.893 366.457L249.079 363.017L248.566 360.855L243.653 340.16C242.609 335.76 245.331 331.346 249.73 330.302C254.13 329.258 258.541 331.977 259.585 336.377L264.49 357.055L265.003 359.216L265.82 362.656L266.333 364.817L270.572 382.684C271.619 387.084 268.897 391.499 264.498 392.543Z" fill="#5B533E"/>
<path d="M265.004 359.216L249.078 363.017L248.565 360.855L264.49 357.055L265.004 359.216Z" fill="#2A2410"/>
<path d="M266.334 364.818L250.406 368.618L249.893 366.456L265.82 362.656L266.334 364.818Z" fill="#2A2410"/>
<path d="M125.41 219.564C125.41 219.564 124.201 223.061 128.831 224.986L178.767 236.174C178.767 236.174 182.486 235.11 182.671 230.786C182.671 230.786 163.708 214.852 125.41 219.564Z" fill="#2A2410"/>
<path d="M174.195 246.856C142.237 245.159 122.403 239.106 122.403 239.106C124.516 235.568 126.359 231.476 127.846 227.718C129.574 223.346 130.821 219.431 131.441 217.367C142.653 218.858 170.07 222.85 180.249 227.395L179.525 231.681C177.192 236.675 175.003 241.686 174.195 246.856Z" fill="#E69862"/>
<path d="M158.384 233.06C157.937 234.368 157.135 235.279 156.594 235.094C156.053 234.909 155.977 233.698 156.424 232.39C156.871 231.082 157.673 230.171 158.214 230.356C158.756 230.54 158.832 231.751 158.384 233.06Z" fill="#CD703A"/>
<path d="M179.526 231.681C168.546 228.903 146.733 224.532 127.847 227.718C129.575 223.346 130.822 219.431 131.442 217.367C142.654 218.858 170.071 222.85 180.25 227.395L179.526 231.681Z" fill="#CD703A"/>
<path d="M197.977 200.41C197.977 200.413 197.977 200.413 197.977 200.413C197.817 203.608 197.647 206.533 197.219 208.978C197.134 209.476 197.034 209.953 196.924 210.411C196.549 211.959 196.026 213.253 195.276 214.226C194.526 215.198 193.649 216.086 192.726 216.886C192.234 217.316 191.729 217.719 191.223 218.096C189.83 219.131 188.433 219.968 187.293 220.588C186.996 220.753 186.715 220.898 186.458 221.031C186.018 221.254 185.643 221.431 185.355 221.566C184.948 221.756 184.713 221.851 184.713 221.851C184.71 221.851 184.71 221.851 184.71 221.851C184.703 221.873 184.698 221.899 184.69 221.926C184.63 222.114 184.578 222.316 184.52 222.528C184.303 223.338 184.06 224.305 183.813 225.411C183.605 226.306 183.395 227.283 183.173 228.336C183.011 229.118 182.84 229.933 182.668 230.783C181.438 229.93 180.061 229.14 178.566 228.411C178.313 228.289 178.056 228.168 177.796 228.048C174.896 226.706 171.584 225.573 168.049 224.62C167.776 224.548 167.502 224.473 167.226 224.403C152.561 220.596 134.344 219.745 125.409 219.566C125.656 218.978 125.894 218.403 126.119 217.831C126.289 217.411 126.454 216.993 126.616 216.581C127.656 213.901 128.529 211.361 129.256 208.956C129.354 208.636 129.449 208.316 129.541 208.001C129.919 206.709 130.251 205.459 130.546 204.248C130.624 203.926 130.701 203.596 130.779 203.253C131.824 198.605 132.699 192.198 133.206 185.29C133.231 184.953 133.256 184.615 133.279 184.278C133.347 183.288 133.404 182.288 133.456 181.283C133.486 180.7 133.511 180.125 133.539 179.551C133.554 179.168 133.566 178.791 133.579 178.414C133.669 175.904 133.701 173.381 133.669 170.904C135.076 158.056 140.856 149.412 148.249 147.737C148.716 147.63 149.211 147.544 149.726 147.477C150.051 147.434 150.381 147.4 150.721 147.372C151.591 147.3 152.506 147.272 153.449 147.28C155.424 147.455 157.234 147.65 158.769 147.835L158.904 147.85C159.234 147.887 159.551 147.927 159.856 147.965H159.859C160.139 148 160.404 148.035 160.659 148.068C162.009 148.243 162.994 148.386 163.484 148.461C163.569 148.473 163.642 148.486 163.697 148.494C163.789 148.506 163.84 148.514 163.84 148.514L183.245 158.367H183.248L184.238 158.87L185.263 159.39L187.303 160.425C187.353 160.452 187.401 160.48 187.451 160.508H187.454C187.772 160.681 188.082 160.85 188.381 161.02C188.848 161.28 189.298 161.535 189.733 161.782C189.733 161.782 193.513 163.734 195.556 166.812C195.741 167.092 195.911 167.38 196.064 167.677C196.436 168.404 196.699 169.182 196.791 170.004C197.101 172.339 197.174 175.214 197.179 178.486C197.179 178.864 197.179 179.248 197.176 179.636C197.173 181.303 197.156 183.066 197.148 184.903C197.141 187.123 197.116 189.866 197.208 192.613C197.221 192.97 197.233 193.328 197.251 193.685C197.326 195.34 197.451 196.973 197.653 198.468C197.731 199.051 197.821 199.613 197.926 200.146C197.943 200.232 197.96 200.322 197.977 200.41Z" fill="#2A2410"/>
<path d="M197.207 192.61C196.065 192.27 194.867 192.163 193.737 192.062C191.169 191.835 189.142 191.654 188.645 188.937C188.057 185.737 192.865 182.11 197.175 179.632C197.178 179.244 197.178 178.859 197.178 178.482C192.818 180.905 186.906 185.007 187.66 189.119C188.298 192.584 191.018 192.824 193.647 193.059C194.872 193.166 196.117 193.279 197.25 193.681C197.232 193.325 197.22 192.967 197.207 192.61Z" fill="#5B533E"/>
<path d="M159.72 150.915C159.155 151.978 157.957 152.568 156.16 152.67C156.035 152.678 155.91 152.68 155.788 152.68C152.306 152.68 150.566 149.805 149.728 147.475C150.053 147.432 150.383 147.398 150.723 147.37C151.473 149.38 152.951 151.68 155.793 151.68C155.896 151.68 155.998 151.678 156.106 151.673C157.526 151.59 158.446 151.178 158.836 150.448C159.253 149.665 159.048 148.623 158.771 147.833L158.906 147.848C159.236 147.885 159.553 147.925 159.858 147.963H159.861C160.11 148.878 160.215 149.985 159.72 150.915Z" fill="#5B533E"/>
<path d="M196.063 167.673C195.513 167.948 194.943 168.196 194.37 168.408C192.977 168.923 191.44 169.271 190.03 169.271C188.247 169.271 186.67 168.718 185.842 167.246C185.16 166.029 185.007 164.784 185.39 163.539C185.76 162.334 186.585 161.309 187.45 160.504H187.453C187.771 160.677 188.081 160.846 188.38 161.016C187.53 161.754 186.687 162.718 186.345 163.836C186.043 164.818 186.165 165.776 186.715 166.756C187.887 168.843 191.257 168.493 194.022 167.471C194.555 167.274 195.07 167.051 195.555 166.808C195.74 167.087 195.91 167.375 196.063 167.673Z" fill="#5B533E"/>
<path d="M179.328 189.045C178.723 186.857 177.075 184.273 172.61 184.4C168.36 184.52 168.355 186.78 168.347 188.775C168.342 190.923 168.337 192.953 163.442 193.378C158.467 193.808 155.155 195.843 155.004 198.566C154.864 201.129 157.649 203.356 162.101 204.241C162.821 204.386 163.531 204.451 164.226 204.451C167.239 204.451 169.986 203.201 172.304 201.549C174.619 199.899 176.504 197.847 177.791 196.239C179.432 194.188 180.008 191.497 179.328 189.045ZM177.01 195.613C174.285 199.021 168.747 204.543 162.297 203.26C158.362 202.477 155.892 200.655 156.005 198.62C156.102 196.822 158.467 194.81 163.53 194.373C169.335 193.87 169.342 191.048 169.347 188.778C169.355 186.801 169.357 185.493 172.64 185.4C172.732 185.398 172.825 185.395 172.917 185.395C175.815 185.395 177.645 186.712 178.365 189.312C178.527 189.902 178.607 190.509 178.607 191.115C178.607 192.712 178.055 194.307 177.01 195.613Z" fill="#5B533E"/>
<path d="M191.64 197.57C191.75 197.567 191.862 197.567 191.97 197.567C194.712 197.567 196.413 198.567 197.435 199.589C197.62 199.774 197.782 199.959 197.925 200.142C197.82 199.609 197.73 199.047 197.652 198.464C196.45 197.449 194.637 196.567 191.965 196.567C191.85 196.567 191.73 196.567 191.61 196.572C190.332 196.607 189.547 196.892 189.147 197.462C188.6 198.24 188.942 199.277 189.302 200.375C189.972 202.408 190.662 204.508 186.794 205.905C182.729 207.372 182.384 209.872 182.539 211.232C182.904 214.412 186.586 217.597 190.417 218.05C190.677 218.08 190.935 218.095 191.192 218.095H191.224C191.729 217.717 192.234 217.315 192.727 216.885C192.005 217.083 191.265 217.143 190.534 217.058C187.182 216.661 183.844 213.831 183.534 211.118C183.319 209.251 184.564 207.773 187.134 206.846C191.916 205.121 190.914 202.076 190.251 200.063C189.971 199.211 189.706 198.405 189.964 198.038C190.102 197.842 190.505 197.602 191.64 197.57Z" fill="#5B533E"/>
<path d="M176.592 205.845C175.41 204.985 174.18 204.685 172.935 204.952C171.477 205.265 170.313 206.304 169.82 207.732C169.65 208.222 169.567 208.725 169.567 209.222C169.567 210.257 169.924 211.267 170.612 212.094C171.322 212.949 172.147 213.539 173.062 213.849C173.372 213.951 173.687 214.001 174 214.001C175.592 214.001 177.152 212.761 177.905 211.301C178.722 209.72 178.805 207.458 176.592 205.845ZM177.018 210.842C176.223 212.384 174.591 213.307 173.38 212.899C172.645 212.652 171.97 212.167 171.383 211.457C170.591 210.502 170.358 209.232 170.766 208.059C171.148 206.946 172.019 206.172 173.146 205.929C174.101 205.724 175.061 205.969 176.003 206.654C178.145 208.212 177.323 210.255 177.018 210.842Z" fill="#5B533E"/>
<path d="M164.787 173.167C163.605 172.307 162.375 172.005 161.132 172.272C159.674 172.585 158.51 173.624 158.015 175.052C157.495 176.559 157.79 178.189 158.81 179.417C159.52 180.272 160.342 180.862 161.26 181.17C161.57 181.275 161.885 181.322 162.198 181.322C163.788 181.322 165.348 180.082 166.103 178.622C166.92 177.04 167.003 174.777 164.787 173.167ZM165.215 178.163C164.417 179.705 162.787 180.628 161.577 180.223C161.21 180.101 160.854 179.915 160.522 179.673C160.187 179.433 159.872 179.133 159.577 178.778C158.784 177.823 158.554 176.553 158.96 175.381C159.345 174.271 160.212 173.493 161.342 173.251C161.56 173.206 161.78 173.181 161.997 173.181C162.734 173.181 163.472 173.449 164.2 173.976C166.342 175.535 165.518 177.575 165.215 178.163Z" fill="#5B533E"/>
<path d="M140.45 196.158C138.267 197.67 136.01 199.233 136.082 202.405C136.157 205.593 134.865 207.913 132.54 208.77C131.927 208.995 131.28 209.105 130.617 209.105C130.17 209.105 129.715 209.055 129.257 208.955C129.355 208.635 129.45 208.315 129.542 208C130.462 208.182 131.37 208.137 132.195 207.833C134.095 207.131 135.147 205.16 135.082 202.428C134.997 198.718 137.592 196.923 139.882 195.338C142.302 193.661 144.217 192.338 143 189.211C141.727 185.951 137.235 185.231 133.207 185.291C133.232 184.954 133.257 184.616 133.28 184.279C137.587 184.231 142.462 185.082 143.93 188.849C145.435 192.71 142.902 194.462 140.45 196.158Z" fill="#5B533E"/>
<path d="M185.262 159.387C183.621 161.116 180.056 164.982 174.821 163.592C167.6 161.675 164.625 151.648 163.485 148.458C163.716 148.492 163.836 148.512 163.836 148.512L185.262 159.387Z" fill="#5B533E"/>
<path d="M173.939 171.915C174.147 172 174.357 172.072 174.57 172.13C176.564 172.676 178.315 172.4 179.774 171.307C184.023 168.126 184.237 159.085 184.244 158.701C184.25 158.396 184.005 158.144 183.702 158.139C183.397 158.134 183.145 158.376 183.139 158.681C183.138 158.77 182.928 167.568 179.111 170.424C177.923 171.313 176.533 171.522 174.863 171.065C167.875 169.151 163.338 149.627 163.293 149.43C163.225 149.133 162.929 148.947 162.631 149.015C162.334 149.083 162.148 149.379 162.216 149.677C162.399 150.484 166.708 168.968 173.939 171.915Z" fill="#FCF9ED"/>
<path d="M151.302 211.812C151.33 212.014 151.464 212.176 151.643 212.249C151.73 212.284 151.825 212.3 151.923 212.286C152.027 212.272 162.264 210.974 171.62 217.101C176.373 220.213 180.804 221.9 184.524 222.527C184.581 222.315 184.636 222.113 184.692 221.925C184.7 221.898 184.706 221.874 184.713 221.85C184.713 221.85 184.949 221.755 185.357 221.566C181.679 221.055 177.152 219.4 172.227 216.176C162.516 209.817 152.209 211.132 151.776 211.191C151.474 211.232 151.262 211.509 151.302 211.812Z" fill="#5B533E"/>
<path d="M177.264 177.752C183.75 180.395 188.02 173.98 188.062 173.915C188.229 173.659 188.156 173.317 187.901 173.151C187.644 172.984 187.303 173.057 187.137 173.312C186.978 173.554 183.311 179.023 177.681 176.729C171.773 174.321 162.599 160.061 162.508 159.917C162.343 159.66 162.002 159.585 161.745 159.749C161.488 159.914 161.413 160.255 161.578 160.512C161.96 161.112 171.035 175.213 177.264 177.752Z" fill="#5B533E"/>
<path d="M122.403 239.106C122.403 239.106 100.296 269.092 117.928 283.769C130.276 294.048 170.591 288.379 180.482 280.675C190.373 272.971 173.773 246.152 173.773 246.152L122.403 239.106Z" fill="#506FAE"/>
<path d="M163.469 403.282L161.452 420.705C161.452 420.705 167.034 423.618 173.241 420.317L177.145 405.562L163.469 403.282Z" fill="#E69862"/>
<path d="M202.823 441.225H157.585C157.248 440.614 157.065 439.747 156.99 438.713C156.707 434.886 157.927 428.779 158.525 424.929C158.598 424.479 158.66 424.059 158.708 423.68C158.791 423.037 158.842 422.501 158.842 422.107C158.842 418.964 161.624 419.503 161.624 419.503C166.202 423.992 171.385 417.26 174.412 419.468C174.412 419.468 175.715 420.402 179.308 423.634C182.897 426.865 189.007 428.998 194.207 431.174C200.92 433.98 202.824 436.783 203.196 438.714C203.488 440.242 202.823 441.225 202.823 441.225Z" fill="#E0AD3A"/>
<path d="M202.823 441.225H157.585C157.248 440.614 157.065 439.747 156.99 438.713H203.196C203.488 440.242 202.823 441.225 202.823 441.225Z" fill="#CA8A24"/>
<path d="M162.2 441.225H160.856C162.197 439.693 163.452 437.342 163.288 433.981C163.07 429.511 160.388 426.498 158.525 424.928C158.598 424.478 158.66 424.058 158.708 423.679C160.717 425.214 164.102 428.574 164.365 433.928C164.521 437.138 163.468 439.532 162.2 441.225Z" fill="#CA8A24"/>
<path d="M178.54 426.302C178.205 426.302 177.901 426.075 177.817 425.736C177.718 425.337 177.961 424.932 178.361 424.833L181.187 424.131C181.586 424.031 181.991 424.275 182.09 424.675C182.189 425.075 181.946 425.479 181.546 425.578L178.72 426.28C178.66 426.295 178.599 426.302 178.54 426.302Z" fill="#CA8A24"/>
<path d="M175.732 423.949C175.397 423.949 175.093 423.722 175.009 423.383C174.91 422.984 175.153 422.579 175.553 422.48L178.379 421.779C178.778 421.679 179.183 421.923 179.282 422.323C179.381 422.722 179.138 423.127 178.738 423.226L175.912 423.928C175.851 423.942 175.791 423.949 175.732 423.949Z" fill="#CA8A24"/>
<path d="M181.366 427.945C181.032 427.945 180.727 427.718 180.643 427.379C180.544 426.98 180.787 426.575 181.187 426.476L184.013 425.774C184.412 425.674 184.817 425.918 184.916 426.318C185.015 426.717 184.772 427.122 184.372 427.221L181.546 427.923C181.486 427.938 181.425 427.945 181.366 427.945Z" fill="#CA8A24"/>
<path d="M184.192 429.524C183.858 429.524 183.554 429.297 183.469 428.958C183.37 428.559 183.613 428.154 184.013 428.055L186.839 427.353C187.239 427.253 187.643 427.498 187.742 427.897C187.841 428.296 187.598 428.701 187.198 428.8L184.372 429.501C184.311 429.517 184.251 429.524 184.192 429.524Z" fill="#CA8A24"/>
<path d="M187.273 430.984C186.939 430.984 186.634 430.757 186.55 430.418C186.451 430.018 186.694 429.614 187.094 429.515L189.92 428.813C190.32 428.714 190.724 428.957 190.823 429.357C190.922 429.756 190.679 430.161 190.279 430.26L187.453 430.962C187.393 430.977 187.332 430.984 187.273 430.984Z" fill="#CA8A24"/>
<path d="M190.615 432.23C190.281 432.23 189.976 432.003 189.892 431.664C189.793 431.265 190.036 430.86 190.436 430.761L193.262 430.06C193.662 429.96 194.066 430.204 194.165 430.604C194.264 431.003 194.021 431.408 193.621 431.507L190.795 432.209C190.734 432.223 190.674 432.23 190.615 432.23Z" fill="#CA8A24"/>
<path d="M111.679 274.318C111.679 274.318 111.679 289.675 173.773 326.363C173.773 326.363 169.135 326.924 166.279 348.085C164.275 362.934 160.584 409.576 160.584 409.576L177.648 411.698C177.648 411.698 196.127 353.526 201.504 325.557C202.666 319.514 201.674 313.56 198.419 308.338C190.811 296.131 177.999 277.733 161.112 266.105C136.948 249.468 111.679 274.318 111.679 274.318Z" fill="#506FAE"/>
<path d="M192.585 300.286C192.385 300.286 192.188 300.196 192.058 300.024C185.093 290.833 166.616 271.129 166.43 270.93C166.22 270.706 166.192 270.366 166.363 270.11C166.402 270.052 170.262 264.223 169.527 259.44C169.472 259.08 169.719 258.743 170.079 258.687C170.44 258.628 170.776 258.879 170.832 259.239C171.53 263.778 168.68 268.875 167.743 270.4C170.341 273.18 186.639 290.685 193.11 299.226C193.33 299.517 193.273 299.931 192.983 300.151C192.864 300.242 192.724 300.286 192.585 300.286Z" fill="#2D3D81"/>
<path d="M177.796 408.388C177.762 408.388 177.728 408.385 177.693 408.38L161.35 405.821C160.99 405.765 160.743 405.427 160.8 405.067C160.856 404.706 161.196 404.461 161.554 404.517L177.897 407.076C178.257 407.132 178.504 407.47 178.447 407.83C178.396 408.155 178.115 408.388 177.796 408.388Z" fill="#2D3D81"/>
<path d="M164.261 406.317C164.24 406.317 164.218 406.316 164.196 406.314C163.833 406.278 163.567 405.956 163.603 405.593C163.622 405.397 165.566 385.608 169.303 353.028C171.547 333.469 178.088 325.583 180.236 323.477C173.72 319.239 129.02 290.005 122.035 281.148C114.548 271.655 116.784 256.449 116.883 255.807C116.938 255.446 117.277 255.2 117.636 255.255C117.997 255.31 118.244 255.647 118.188 256.008C118.165 256.16 115.945 271.294 123.072 280.331C130.315 289.515 181.164 322.507 181.677 322.839C181.857 322.956 181.969 323.153 181.978 323.367C181.986 323.581 181.89 323.787 181.72 323.917C181.636 323.982 173.185 330.78 170.615 353.18C166.879 385.747 164.937 405.527 164.917 405.723C164.884 406.062 164.597 406.317 164.261 406.317Z" fill="#2D3D81"/>
<path d="M186.777 322.136C186.264 321.804 135.415 288.812 128.172 279.628C121.045 270.59 123.265 255.456 123.288 255.304C123.343 254.944 123.096 254.607 122.736 254.551C122.377 254.496 122.039 254.743 121.983 255.103C121.884 255.746 119.648 270.951 127.135 280.445C134.121 289.303 178.82 318.536 185.336 322.774C183.189 324.88 176.647 332.766 174.403 352.325C171.082 381.275 169.005 401.641 168.608 405.62C169.039 405.721 169.464 405.753 169.901 405.822C170.268 402.13 172.359 381.73 175.715 352.475C178.285 330.076 186.736 323.277 186.82 323.212C186.99 323.082 187.086 322.876 187.078 322.662C187.07 322.449 186.957 322.253 186.777 322.136Z" fill="#2D3D81"/>
<path d="M168.318 141.636C168.318 141.636 160.402 133.057 162.061 120.33C163.555 108.866 173.601 101.074 189.7 103.772C205.799 106.47 206.709 126.209 202.466 134.802C198.223 143.396 172.073 145.92 168.318 141.636Z" fill="#CF492C"/>
<path d="M182.794 158.491C175.519 167.979 164.867 152.282 165.425 149.08C169.908 141.719 171.082 133.971 171.082 133.971L186.883 145.497C186.683 146.01 186.482 146.526 186.28 147.043C185.346 149.43 184.405 151.874 183.673 154.533C183.324 155.798 183.024 157.111 182.794 158.491Z" fill="#E69862"/>
<path d="M183.672 154.533C174.994 149.761 171.857 138.286 171.857 138.286L186.279 147.043C185.346 149.43 184.404 151.875 183.672 154.533Z" fill="#2A2410"/>
<path d="M194.532 134.404C194.532 134.404 197.215 130.362 200.544 132.412C203.873 134.463 200.557 146.544 193.777 144.193L194.532 134.404Z" fill="#CD703A"/>
<path d="M170.965 136.443C171.46 141.78 181.994 150.791 187.597 149.787C190.997 149.177 194.445 147.005 197.662 140.974C197.679 140.943 197.695 140.909 197.713 140.878C197.902 140.521 198.083 140.169 198.257 139.818C198.574 139.186 198.865 138.563 199.128 137.963C199.19 137.821 199.251 137.681 199.309 137.543C199.466 137.168 199.611 136.803 199.742 136.449C199.905 136.013 200.047 135.596 200.166 135.2C202.087 128.787 204.375 121.618 199.784 116.006C195.193 110.394 186.646 106.85 180.012 111.234C180.012 111.234 174.891 115.24 172.553 124.629C170.211 134.019 170.605 132.588 170.965 136.443Z" fill="#E69862"/>
<path d="M190.27 124.868C190.27 124.868 188.309 122.586 185.324 123.125C183.657 123.426 183.777 125.078 185.696 125.194C187.036 125.275 187.742 125.401 188.984 126.128C190.226 126.855 190.802 125.358 190.27 124.868Z" fill="#CF492C"/>
<path d="M194.983 126.657C194.983 126.657 197.98 126.385 199.746 128.85C200.733 130.227 199.496 131.329 198.038 130.076C197.02 129.201 196.425 128.8 195.028 128.457C193.631 128.114 194.26 126.638 194.983 126.657Z" fill="#CF492C"/>
<path d="M187.326 140.518C186.953 140.36 186.559 140.135 186.151 139.818C184.042 138.179 183.481 135.326 183.458 135.205C183.423 135.021 183.544 134.843 183.729 134.808C183.913 134.773 184.091 134.894 184.126 135.078C184.131 135.105 184.665 137.803 186.568 139.281C188.452 140.745 189.955 139.934 189.97 139.926C190.134 139.834 190.341 139.893 190.433 140.057C190.525 140.221 190.466 140.428 190.302 140.52C190.24 140.555 188.999 141.225 187.326 140.518Z" fill="#2A2410"/>
<path d="M186.487 142.776C186.68 142.815 186.807 142.825 186.828 142.827C187.076 142.845 187.291 142.658 187.309 142.41C187.327 142.163 187.143 141.947 186.894 141.929C186.821 141.923 185.208 141.775 184.568 140.258C184.471 140.029 184.208 139.921 183.978 140.018C183.749 140.114 183.642 140.379 183.738 140.607C184.402 142.181 185.83 142.644 186.487 142.776Z" fill="#CD703A"/>
<path d="M204.698 124.757C204.698 124.757 199.094 128.619 192.44 118.87C192.44 118.87 181.428 124.377 175.268 115.044C170.106 107.223 183.262 104.721 192.567 108.363C201.872 112.003 204.698 124.757 204.698 124.757Z" fill="#CF492C"/>
<path d="M183.703 105.911C183.703 105.911 188.752 94.934 174.608 90C168.673 87.93 157.626 90.485 156.871 105.112C156.256 117.035 154.94 138.164 138.16 133.571C138.16 133.571 142.827 144.992 154.993 138.967C167.16 132.942 164.144 116.048 170.75 114.625C177.356 113.202 182.234 111.02 183.703 105.911Z" fill="#CF492C"/>
<path d="M163.917 116.742C163.855 116.742 163.791 116.733 163.729 116.713C163.4 116.609 163.217 116.258 163.321 115.929C165.812 108.03 171.247 104.778 175.367 103.441C179.808 102 183.614 102.415 183.774 102.433C184.117 102.472 184.363 102.782 184.323 103.125C184.284 103.468 183.972 103.712 183.631 103.675C183.594 103.67 179.898 103.274 175.708 104.644C170.145 106.464 166.378 110.387 164.512 116.305C164.429 116.571 164.182 116.742 163.917 116.742Z" fill="#FCF9ED"/>
<path d="M179.445 115.335C179.445 115.335 179.498 118.25 177.121 121.175C174.744 124.099 172.362 121.155 172.362 121.155L175.489 113.383L179.445 115.335Z" fill="#CF492C"/>
<path d="M187.161 129.205C186.854 129.937 186.257 130.385 185.827 130.204C185.398 130.024 185.299 129.284 185.606 128.552C185.913 127.82 186.51 127.372 186.94 127.552C187.37 127.733 187.469 128.473 187.161 129.205Z" fill="#2A2410"/>
<path d="M195.854 133.071C195.547 133.803 194.95 134.251 194.52 134.071C194.091 133.891 193.992 133.151 194.299 132.419C194.606 131.687 195.203 131.239 195.633 131.419C196.063 131.6 196.162 132.339 195.854 133.071Z" fill="#2A2410"/>
<path d="M189.519 136.955C189.295 136.912 189.062 136.845 188.825 136.746C188.595 136.65 188.487 136.387 188.582 136.158C188.677 135.928 188.942 135.82 189.17 135.915C190.076 136.291 190.885 136.052 191.311 135.86C190.511 133.621 191.145 128.821 191.174 128.605C191.207 128.358 191.434 128.186 191.68 128.219C191.931 128.256 192.099 128.479 192.066 128.725C191.865 130.217 191.512 134.405 192.283 135.845C192.391 136.046 192.331 136.296 192.145 136.426C192.092 136.464 190.973 137.231 189.519 136.955Z" fill="#2A2410"/>
<path d="M197.662 140.974C197.856 140.618 198.079 140.169 198.257 139.818C198.582 139.187 198.859 138.563 199.128 137.963C199.191 137.822 199.25 137.681 199.309 137.543C199.203 137.506 199.047 137.463 198.939 137.43C196.537 136.675 194.34 136.848 194.037 137.814C193.74 138.751 195.372 140.206 197.662 140.974Z" fill="#CD703A"/>
<path d="M176.375 129.473C175.934 130.386 177.414 132.015 179.682 133.111C181.95 134.207 184.146 134.355 184.588 133.442C185.029 132.529 183.549 130.9 181.281 129.803C179.013 128.707 176.817 128.559 176.375 129.473Z" fill="#CD703A"/>
<path d="M174.076 123.957C174.076 123.957 173.02 119.594 168.745 120.142C164.469 120.69 162.982 134.427 170.86 135.146L174.076 123.957Z" fill="#E69862"/>
<path d="M177.121 121.174C177.121 121.174 174.541 127.738 177.121 137.821C177.121 137.821 170.724 132.757 172.362 121.154L177.121 121.174Z" fill="#CF492C"/>
<path d="M171.498 129.959C171.491 130.164 171.32 130.324 171.115 130.317C171.087 130.316 171.061 130.312 171.035 130.306C170.87 130.264 170.751 130.109 170.757 129.933C170.757 129.91 170.792 128.569 170.229 127.178C169.306 127.617 168.547 128.05 168.536 128.056C168.449 128.107 168.35 128.117 168.26 128.093C168.167 128.069 168.084 128.009 168.03 127.919C167.93 127.742 167.992 127.515 168.169 127.412C168.203 127.392 168.963 126.959 169.91 126.508C169.506 125.789 168.911 125.109 168.034 124.657C167.853 124.562 167.783 124.34 167.877 124.159C167.972 123.975 168.195 123.905 168.376 123.999C171.608 125.673 171.504 129.786 171.498 129.959Z" fill="#2A2410"/>
<path d="M169.873 125.869C169.873 125.869 168.579 124.799 167.964 126.647C167.472 128.123 169.168 129.095 169.168 129.095L168.055 131.807C167.74 132.55 167.699 133.648 168.348 133.566C169.516 131.885 170.166 130.465 170.75 128.524C170.75 128.524 170.627 127.232 169.873 125.869Z" fill="#FCF9ED"/>
<path d="M159.874 166.898C159.458 168.68 159.105 170.702 158.836 172.8C158.707 173.852 158.587 174.925 158.483 176.013C158.38 177.101 158.302 178.206 158.238 179.319C157.959 183.774 157.946 188.369 158.112 192.949C158.276 197.527 158.643 202.121 159.245 206.526C159.397 207.626 159.566 208.712 159.754 209.773C159.937 210.835 160.139 211.874 160.362 212.867C160.583 213.859 160.831 214.806 161.082 215.658C161.328 216.512 161.6 217.259 161.799 217.743C161.892 217.965 161.968 218.12 161.943 218.117C161.931 218.101 161.919 218.096 161.897 218.079C161.864 218.035 161.825 217.995 161.783 217.96C161.72 217.885 161.647 217.811 161.57 217.747C161.566 217.746 161.549 217.739 161.55 217.751C161.58 217.784 161.609 217.818 161.637 217.854L161.798 218.015C161.85 218.069 161.935 218.142 162.002 218.206L162.11 218.306L162.235 218.415C162.555 218.702 162.954 219.027 163.353 219.351C164.173 220.009 165.078 220.69 166.001 221.381C166.927 222.071 167.884 222.764 168.854 223.456C170.796 224.839 172.785 226.234 174.795 227.613C176.8 229.005 178.833 230.379 180.864 231.771L193.13 240.112C197.213 242.921 201.343 245.719 205.37 248.597L205.406 248.623C208.732 251 209.501 255.622 207.124 258.947C205.07 261.82 201.337 262.782 198.216 261.459C193.542 259.479 189.008 257.355 184.452 255.197L177.663 251.882C175.41 250.752 173.158 249.614 170.916 248.443C166.424 246.106 161.968 243.693 157.481 241.069C156.359 240.409 155.233 239.734 154.094 239.031C152.952 238.329 151.808 237.592 150.615 236.782C150.011 236.367 149.409 235.95 148.755 235.461L148.513 235.281L148.259 235.086C148.085 234.951 147.926 234.831 147.742 234.682L147.194 234.234L146.59 233.708C146.366 233.505 146.128 233.279 145.901 233.06C145.614 232.765 145.331 232.462 145.059 232.155C144.822 231.876 144.59 231.592 144.363 231.305C144.157 231.036 143.968 230.775 143.775 230.506C143.052 229.47 142.517 228.537 142.046 227.649C141.139 225.9 140.495 224.324 139.947 222.817C139.401 221.308 138.959 219.86 138.563 218.439C137.774 215.601 137.19 212.86 136.706 210.138C135.737 204.702 135.19 199.357 134.9 193.982C134.767 191.296 134.697 188.605 134.727 185.901C134.76 183.196 134.838 180.479 135.052 177.735C135.27 174.992 135.556 172.219 136.031 169.394C136.499 166.567 137.107 163.689 138.053 160.676C139.932 154.697 146.301 151.373 152.28 153.251C157.973 155.04 161.259 160.901 159.939 166.619L159.874 166.898Z" fill="#E69862"/>
<path d="M162.148 244.529C162.063 244.529 161.977 244.508 161.898 244.462C161.408 244.179 149.849 237.496 146.844 234.592C141.873 229.787 139.567 223.257 139.472 222.981C139.381 222.72 139.52 222.435 139.78 222.345C140.04 222.253 140.326 222.392 140.416 222.653C140.439 222.718 142.743 229.239 147.538 233.873C150.455 236.692 162.278 243.527 162.397 243.596C162.636 243.734 162.718 244.04 162.58 244.279C162.489 244.44 162.321 244.529 162.148 244.529Z" fill="#CD703A"/>
<path d="M154.659 221.031C154.417 221.031 154.185 220.898 154.068 220.667C153.904 220.341 154.036 219.944 154.362 219.781C156.989 218.461 161.18 217.603 161.357 217.567C161.712 217.494 162.063 217.725 162.135 218.083C162.207 218.44 161.976 218.789 161.619 218.861C161.577 218.869 157.423 219.721 154.955 220.961C154.86 221.008 154.759 221.031 154.659 221.031Z" fill="#CD703A"/>
<path d="M160.211 218.874C160.065 218.874 159.917 218.826 159.795 218.726C158.515 217.686 156.027 217.056 156.002 217.049C155.648 216.961 155.433 216.602 155.521 216.248C155.61 215.894 155.967 215.679 156.322 215.768C156.436 215.796 159.123 216.478 160.628 217.701C160.911 217.931 160.954 218.347 160.724 218.63C160.594 218.791 160.403 218.874 160.211 218.874Z" fill="#CD703A"/>
<path d="M267.599 262.356H211.714C210.037 262.356 208.677 260.996 208.677 259.319C208.677 257.642 210.037 256.282 211.714 256.282H267.599C269.276 256.282 270.636 257.642 270.636 259.319C270.636 260.996 269.277 262.356 267.599 262.356Z" fill="#2A2410"/>
<path d="M215.439 264.997H193.871C190.735 264.997 188.193 262.455 188.193 259.319C188.193 256.183 190.735 253.641 193.871 253.641H215.439C218.575 253.641 221.117 256.183 221.117 259.319C221.117 262.455 218.575 264.997 215.439 264.997Z" fill="#5B533E"/>
<path d="M273.685 264.997C273.675 264.997 273.665 264.997 273.655 264.997L252.263 264.885C249.127 264.868 246.598 262.313 246.615 259.177C246.631 256.051 249.171 253.529 252.293 253.529C252.303 253.529 252.313 253.529 252.323 253.529L273.715 253.641C276.851 253.657 279.38 256.213 279.363 259.349C279.346 262.475 276.806 264.997 273.685 264.997Z" fill="#5B533E"/>
<path d="M204.155 249.236C204.155 249.236 211.632 248.511 215.858 250.624C220.084 252.737 217.773 255.906 217.773 255.906H215.66L204.155 249.236Z" fill="#CD703A"/>
<path d="M216.98 266.47C216.534 266.861 215.72 267.244 214.674 267.574H214.671C214.037 267.775 213.319 267.954 212.545 268.102C211.903 268.229 211.225 268.332 210.525 268.406C209.989 268.464 209.439 268.506 208.89 268.527C208.879 268.527 208.872 268.53 208.864 268.53C207.776 268.572 206.68 268.543 205.631 268.414C205.15 268.359 204.68 268.279 204.229 268.179C204.203 268.174 204.179 268.168 204.155 268.163H204.152C199.295 268.361 196.821 264.973 196.821 264.973H199.784C199.422 263.542 199.631 261.55 199.813 259.34C200.072 256.189 196.116 254.322 196.116 254.322C196.116 254.322 190.834 251.153 188.985 248.512C188.985 248.512 197.69 247.889 204.567 248.776C212.754 249.832 217.17 250.303 217.772 255.114C218.3 259.339 219.092 264.621 216.98 266.47Z" fill="#E69862"/>
<path d="M184.265 256.09C184.265 256.09 189.151 244.022 198.146 244.029C198.146 244.029 200.396 244.698 201.792 246.494C201.792 246.494 191.66 249.115 188.623 258.07C186.766 258.421 185.35 257.67 184.265 256.09Z" fill="#2A2410"/>
<path d="M201.503 265.73C201.498 265.946 201.321 266.118 201.107 266.118H201.096C199.688 266.081 198.563 265.162 198.516 265.122C198.466 265.08 198.426 265.03 198.405 264.971H199.773C200.14 265.148 200.61 265.314 201.117 265.325C201.337 265.331 201.509 265.513 201.503 265.73Z" fill="#CD703A"/>
<path d="M206.476 266.897C206.384 267.605 206.035 268.093 205.631 268.413C205.15 268.358 204.68 268.278 204.229 268.178C204.256 268.167 204.287 268.159 204.319 268.154C204.369 268.146 205.539 267.974 205.692 266.797C205.922 265.001 205.713 261.969 205.713 261.94C205.697 261.721 205.861 261.533 206.08 261.517C206.299 261.499 206.487 261.665 206.502 261.884C206.511 262.012 206.719 265.025 206.476 266.897Z" fill="#CD703A"/>
<path d="M210.982 267.28C210.921 267.745 210.752 268.115 210.525 268.405C209.989 268.463 209.439 268.505 208.89 268.526C209.151 268.473 210.063 268.209 210.195 267.179C210.425 265.386 210.118 261.456 210.113 261.416C210.097 261.197 210.261 261.007 210.477 260.988C210.699 260.97 210.886 261.136 210.905 261.353C210.916 261.518 211.222 265.405 210.982 267.28Z" fill="#CD703A"/>
<path d="M215.017 266.607C214.967 266.993 214.843 267.309 214.674 267.574H214.671C214.037 267.775 213.319 267.954 212.545 268.102C212.598 267.975 212.714 267.88 212.857 267.862C212.91 267.857 214.08 267.682 214.233 266.505C214.463 264.704 214.336 261.698 214.336 261.669C214.326 261.45 214.495 261.265 214.714 261.254C214.936 261.246 215.118 261.415 215.126 261.634C215.131 261.758 215.258 264.737 215.017 266.607Z" fill="#CD703A"/>
<path d="M252.292 250.712C252.292 250.712 247.67 251.416 246.878 253.529C246.086 255.642 242.388 258.019 244.501 259.075C246.614 260.131 249.255 257.755 250.047 256.962C250.839 256.17 254.801 256.962 255.593 255.113C256.385 253.265 252.292 250.712 252.292 250.712Z" fill="#E69862"/>
<path d="M275.533 266.47C275.087 266.861 274.273 267.244 273.227 267.574H273.224C272.59 267.775 271.872 267.954 271.098 268.102C270.456 268.229 269.778 268.332 269.078 268.406C268.542 268.464 267.993 268.506 267.443 268.527C267.433 268.527 267.425 268.53 267.417 268.53C266.329 268.572 265.233 268.543 264.185 268.414C263.704 268.359 263.234 268.279 262.783 268.179C262.757 268.174 262.733 268.168 262.709 268.163H262.706C257.849 268.361 255.375 264.973 255.375 264.973H258.338C257.976 263.542 258.185 261.55 258.367 259.34C258.626 256.189 254.67 254.322 254.67 254.322C254.67 254.322 251.096 254.215 249.247 251.575C249.247 251.575 256.244 247.889 263.121 248.776C271.308 249.832 275.724 250.303 276.326 255.114C276.853 259.339 277.646 264.621 275.533 266.47Z" fill="#E69862"/>
<path d="M259.932 265.72C259.927 265.937 259.75 266.106 259.536 266.106H259.525C258.117 266.072 256.99 265.153 256.942 265.113C256.897 265.073 256.86 265.026 256.836 264.973H258.22C258.584 265.147 259.049 265.306 259.546 265.316C259.766 265.321 259.938 265.503 259.932 265.72Z" fill="#CD703A"/>
<path d="M265.029 266.897C264.937 267.605 264.588 268.093 264.184 268.413C263.703 268.358 263.233 268.278 262.782 268.178C262.808 268.167 262.84 268.159 262.872 268.154C262.922 268.146 264.092 267.974 264.245 266.797C264.475 265.001 264.266 261.969 264.266 261.94C264.25 261.721 264.414 261.533 264.633 261.517C264.852 261.499 265.04 261.665 265.056 261.884C265.064 262.012 265.272 265.025 265.029 266.897Z" fill="#CD703A"/>
<path d="M269.535 267.28C269.474 267.745 269.305 268.115 269.078 268.405C268.542 268.463 267.993 268.505 267.443 268.526C267.704 268.473 268.616 268.209 268.748 267.179C268.978 265.386 268.671 261.456 268.666 261.416C268.65 261.197 268.814 261.007 269.031 260.988C269.253 260.97 269.44 261.136 269.459 261.353C269.469 261.518 269.775 265.405 269.535 267.28Z" fill="#CD703A"/>
<path d="M273.57 266.607C273.52 266.993 273.396 267.309 273.227 267.574H273.224C272.59 267.775 271.872 267.954 271.098 268.102C271.151 267.975 271.267 267.88 271.41 267.862C271.463 267.857 272.633 267.682 272.786 266.505C273.016 264.704 272.889 261.698 272.889 261.669C272.878 261.45 273.047 261.265 273.267 261.254C273.489 261.246 273.671 261.415 273.679 261.634C273.684 261.758 273.811 264.737 273.57 266.607Z" fill="#CD703A"/>
<path d="M270.797 463.1H243.917C241.419 463.1 239.037 462.025 237.384 460.152C235.737 458.286 234.97 455.802 235.279 453.336C238.389 428.506 263.099 403.993 264.15 402.961C266.003 401.142 268.98 401.169 270.799 403.022C272.618 404.874 272.591 407.85 270.74 409.669C270.509 409.896 247.888 432.369 244.721 453.695H270.797C273.394 453.695 275.499 455.8 275.499 458.397C275.499 460.995 273.394 463.1 270.797 463.1Z" fill="#2A2410"/>
<path d="M220.172 465.981H88.946C85.156 465.981 82.084 462.909 82.084 459.118C82.084 455.328 85.156 452.256 88.946 452.256H220.171C223.961 452.256 227.033 455.328 227.033 459.118C227.034 462.909 223.962 465.981 220.172 465.981Z" fill="#5B533E"/>
<path d="M290.992 465.981H238.503C234.713 465.981 231.641 462.909 231.641 459.118C231.641 455.328 234.713 452.256 238.503 452.256H290.992C294.782 452.256 297.854 455.328 297.854 459.118C297.854 462.909 294.782 465.981 290.992 465.981Z" fill="#5B533E"/>
<path d="M350.595 113.725C354.729 100.463 347.33 86.3605 334.067 82.2263C320.805 78.0922 306.702 85.4921 302.568 98.7544C298.434 112.017 305.834 126.119 319.096 130.254C332.359 134.388 346.461 126.988 350.595 113.725Z" fill="#DBD7C0"/>
<path d="M349.457 114.269C355.286 101.66 349.789 86.7123 337.18 80.8834C324.57 75.0545 309.623 80.5512 303.794 93.1606C297.965 105.77 303.462 120.717 316.071 126.546C328.681 132.375 343.628 126.878 349.457 114.269Z" fill="#2A2410"/>
<path d="M330.949 126.445C343.521 124.059 351.779 111.932 349.392 99.3596C347.006 86.7871 334.879 78.5297 322.307 80.9163C309.734 83.3028 301.477 95.4295 303.863 108.002C306.25 120.575 318.376 128.832 330.949 126.445Z" fill="#FCF9ED"/>
<path d="M326.659 82.625H325.792V87.457H326.659V82.625Z" fill="#2A2410"/>
<path d="M326.659 119.797H325.792V124.629H326.659V119.797Z" fill="#2A2410"/>
<path d="M310.055 103.193H305.223V104.061H310.055V103.193Z" fill="#2A2410"/>
<path d="M347.227 103.193H342.395V104.061H347.227V103.193Z" fill="#2A2410"/>
<path d="M340.737 88.4403L337.32 91.8575L337.934 92.4705L341.35 89.0533L340.737 88.4403Z" fill="#2A2410"/>
<path d="M314.488 114.77L311.072 118.188L311.685 118.801L315.101 115.383L314.488 114.77Z" fill="#2A2410"/>
<path d="M311.681 88.4814L311.068 89.0945L314.484 92.5112L315.097 91.8981L311.681 88.4814Z" fill="#2A2410"/>
<path d="M337.96 114.758L337.347 115.371L340.763 118.788L341.377 118.175L337.96 114.758Z" fill="#2A2410"/>
<g opacity="0.2">
<path d="M349.767 103.689C349.767 104.133 349.755 104.574 349.73 105.012C349.044 92.847 338.931 83.163 326.597 83.163C314.264 83.163 304.15 92.847 303.464 105.012C303.439 104.574 303.427 104.132 303.427 103.689C303.427 90.912 313.82 80.519 326.597 80.519C339.374 80.519 349.767 90.912 349.767 103.689Z" fill="#2A2410"/>
</g>
<path d="M326.09 103.037L325.818 103.728L334.011 106.954L334.283 106.263L326.09 103.037Z" fill="#CF492C"/>
<path d="M326.597 103.999H313.083V103.256H325.854V92.766H326.597V103.999Z" fill="#2A2410"/>
<path d="M9.94299 15.567L-0.127014 43.907H28.545L19.076 15.612C18.725 14.563 17.743 13.856 16.638 13.856H12.367C11.277 13.856 10.307 14.541 9.94299 15.567Z" fill="#C2BDA2"/>
<path d="M16.255 0H12.78V21.336H16.255V0Z" fill="#C2BDA2"/>
<path d="M229.151 15.567L219.081 43.907H247.753L238.284 15.612C237.933 14.563 236.951 13.856 235.846 13.856H231.575C230.485 13.856 229.515 14.541 229.151 15.567Z" fill="#C2BDA2"/>
<path d="M235.463 0H231.988V21.336H235.463V0Z" fill="#C2BDA2"/>
<path d="M53.365 109.439H-22.376V112.128H53.365C54.107 112.128 54.71 111.526 54.71 110.783C54.71 110.041 54.108 109.439 53.365 109.439Z" fill="#2A2410"/>
<path d="M52.926 103.641V117.926L63.455 111.332L52.926 103.641Z" fill="#2A2410"/>
<path d="M11.454 101.041V103.641H3.483V101.581L7.078 98.256C7.76 97.617 7.85901 97.233 7.85901 96.892C7.85901 96.409 7.53201 96.11 6.89301 96.11C6.29601 96.11 5.72799 96.437 5.42999 97.034L2.89999 95.77C3.62499 94.406 5.05999 93.468 7.20499 93.468C9.56399 93.468 11.226 94.69 11.226 96.58C11.226 97.56 10.97 98.441 9.521 99.749L8.10001 101.042L11.454 101.041Z" fill="#2A2410"/>
<path d="M25.676 103.641L25.648 99.109L23.488 102.746H22.011L19.851 99.265V103.641H16.796V93.695H19.553L22.792 98.995L25.946 93.695H28.702L28.73 103.641H25.676Z" fill="#2A2410"/>
<path d="M323.123 396.067C322.536 396.067 322.055 395.597 322.045 395.008C321.839 383.779 330.84 378.914 331.223 378.712C331.751 378.434 332.403 378.637 332.68 379.164C332.957 379.691 332.755 380.342 332.23 380.62C332.209 380.631 330.129 381.752 328.11 384.089C325.442 387.178 324.127 390.838 324.203 394.968C324.214 395.564 323.74 396.056 323.144 396.067C323.137 396.067 323.13 396.067 323.123 396.067Z" fill="#678E43"/>
<path d="M319.642 368.183C319.642 368.183 307.111 344.548 352.065 327.978C354.384 327.123 356.728 329.172 356.173 331.58C353.337 343.885 344.032 372.653 319.642 368.183Z" fill="#4B6F32"/>
<path d="M307.31 393.929C307.258 393.929 307.206 393.925 307.154 393.918C306.564 393.832 306.155 393.285 306.241 392.695C309.355 371.194 325.377 361.194 327.194 360.125C327.705 359.82 328.375 359.984 328.68 360.496C328.985 361.008 328.824 361.667 328.312 361.971L328.289 361.984C327.531 362.43 323.533 364.9 319.236 369.724C313.304 376.384 309.65 384.217 308.378 393.003C308.299 393.542 307.838 393.929 307.31 393.929Z" fill="#4B6F32"/>
<path d="M313.914 393.929C313.897 393.929 313.88 393.929 313.862 393.928C313.267 393.9 312.807 393.395 312.835 392.799C313.269 383.598 307.43 375.205 307.371 375.122C307.028 374.635 307.144 373.962 307.631 373.618C308.118 373.275 308.791 373.391 309.135 373.878C309.393 374.244 315.46 382.968 314.991 392.901C314.963 393.478 314.486 393.929 313.914 393.929Z" fill="#4B6F32"/>
<path d="M317.014 395.507C317.004 395.507 316.995 395.507 316.985 395.507C316.389 395.491 315.919 394.996 315.935 394.4L316.854 359.405C316.87 358.809 317.362 358.34 317.961 358.355C318.557 358.371 319.027 358.866 319.011 359.462L318.092 394.457C318.077 395.043 317.597 395.507 317.014 395.507Z" fill="#678E43"/>
<path d="M309.508 375.719C309.508 375.719 284.013 383.823 275.747 336.63C275.321 334.196 277.756 332.255 280.026 333.232C291.625 338.222 318.266 352.521 309.508 375.719Z" fill="#4B6F32"/>
<path d="M326.024 384.802C326.024 384.802 348.942 398.601 367.934 354.615C368.913 352.346 366.995 349.894 364.56 350.317C352.12 352.479 322.888 360.205 326.024 384.802Z" fill="#678E43"/>
<path d="M321.822 371.51C320.048 375.181 314.691 374.777 313.472 370.886C308.036 353.527 298.927 316.732 317.788 312.51C338.949 307.773 331.859 350.746 321.822 371.51Z" fill="#678E43"/>
<path d="M317.474 373.864C317.466 373.864 317.458 373.864 317.45 373.863C317.125 373.85 316.872 373.576 316.885 373.251L318.877 324.058C318.89 323.733 319.167 323.48 319.489 323.494C319.814 323.507 320.067 323.781 320.054 324.106L318.062 373.299C318.049 373.616 317.788 373.864 317.474 373.864Z" fill="#4B6F32"/>
<path d="M326.655 384.875C326.484 384.875 326.315 384.801 326.199 384.659C325.993 384.407 326.03 384.037 326.282 383.831L353.524 361.537C353.776 361.331 354.147 361.368 354.352 361.62C354.558 361.872 354.521 362.242 354.269 362.448L327.027 384.742C326.918 384.831 326.786 384.875 326.655 384.875Z" fill="#4B6F32"/>
<path d="M320.054 447.126C336.145 447.126 349.19 445.534 349.19 443.571C349.19 441.608 336.145 440.016 320.054 440.016C303.963 440.016 290.918 441.608 290.918 443.571C290.918 445.534 303.963 447.126 320.054 447.126Z" fill="#C2BDA2"/>
<path d="M346.31 391.618L344.79 398.581L344.745 398.789L344.57 399.589L344.295 400.853L343.75 403.356L343.576 404.159L343.248 405.659L342.75 407.931L337.98 429.786L337.805 430.589L336.983 434.356L336.808 435.159L334.973 443.571H301.966L300.13 435.159L299.956 434.356L299.133 430.589L298.958 429.786L294.188 407.931L293.69 405.659L293.363 404.159L293.188 403.356L292.641 400.853L292.365 399.589L292.19 398.789L292.145 398.581L290.625 391.618H346.31Z" fill="#2A2410"/>
<path d="M344.745 398.789L344.57 399.589H292.365L292.19 398.789H344.745Z" fill="#5B533E"/>
<path d="M343.75 403.356L343.576 404.159H293.363L293.188 403.356H343.75Z" fill="#5B533E"/>
<path d="M337.98 429.786L337.805 430.589H299.133L298.958 429.786H337.98Z" fill="#5B533E"/>
<path d="M336.983 434.356L336.808 435.159H300.13L299.956 434.356H336.983Z" fill="#5B533E"/>
<path d="M45.77 465.462C45.77 467.214 32.255 468.635 15.584 468.635C-1.08698 468.635 -14.602 467.215 -14.602 465.462C-14.602 463.71 -1.08698 462.289 15.584 462.289C32.255 462.289 45.77 463.71 45.77 465.462Z" fill="#C2BDA2"/>
<path d="M20.898 134.129H10.734V464.162H20.898V134.129Z" fill="#C2BDA2"/>
<path d="M24.284 342.565H7.259V465.309H24.284V342.565Z" fill="#9A957E"/>
</g>
</g>
<defs>
<clipPath id="clip0_1_1856">
<rect width="383" height="500" fill="white"/>
</clipPath>
<clipPath id="clip1_1_1856">
<rect width="750" height="500" fill="white" transform="translate(-367)"/>
</clipPath>
</defs>
</svg>
